<?xml version="1.0" encoding="UTF-8" standalone="no"?>
<!DOCTYPE svg PUBLIC "-//W3C//DTD SVG 1.1//EN"
 "http://www.w3.org/Graphics/SVG/1.1/DTD/svg11.dtd">
<!-- Generated by graphviz version 13.1.0 (20250701.0955)
 -->
<!-- Title: Power_Grid_Diagram_Final_Compact Pages: 1 -->
<svg width="2558pt" height="702pt"
 viewBox="0.00 0.00 2558.00 702.00" xmlns="http://www.w3.org/2000/svg" xmlns:xlink="http://www.w3.org/1999/xlink">
<g id="graph0" class="graph" transform="scale(1 1) rotate(0) translate(4 697.5)">
<title>Power_Grid_Diagram_Final_Compact</title>
<polygon fill="white" stroke="none" points="-4,4 -4,-697.5 2554,-697.5 2554,4 -4,4"/>
<g id="clust1" class="cluster">
<title>cluster_mining</title>
<polygon fill="none" stroke="black" points="8,-22.5 8,-206 1086,-206 1086,-22.5 8,-22.5"/>
</g>
<g id="clust2" class="cluster">
<title>cluster_processing</title>
<polygon fill="none" stroke="black" points="1128,-8 1128,-220.5 1982,-220.5 1982,-8 1128,-8"/>
</g>
<g id="clust3" class="cluster">
<title>cluster_pelletizing</title>
<polygon fill="none" stroke="black" points="2024,-29.75 2024,-198.75 2542,-198.75 2542,-29.75 2024,-29.75"/>
</g>
<!-- source -->
<g id="node1" class="node">
<title>source</title>
<path fill="#f8cecc" stroke="black" d="M1602.75,-693.5C1602.75,-693.5 1507.25,-693.5 1507.25,-693.5 1501.25,-693.5 1495.25,-687.5 1495.25,-681.5 1495.25,-681.5 1495.25,-667.5 1495.25,-667.5 1495.25,-661.5 1501.25,-655.5 1507.25,-655.5 1507.25,-655.5 1602.75,-655.5 1602.75,-655.5 1608.75,-655.5 1614.75,-661.5 1614.75,-667.5 1614.75,-667.5 1614.75,-681.5 1614.75,-681.5 1614.75,-687.5 1608.75,-693.5 1602.75,-693.5"/>
<text xml:space="preserve" text-anchor="middle" x="1555" y="-676.2" font-family="SimHei" font-size="14.00">220kV 电源</text>
<text xml:space="preserve" text-anchor="middle" x="1555" y="-661.2" font-family="SimHei" font-size="14.00">(Mboudi 变电站)</text>
</g>
<!-- main_substation -->
<g id="node2" class="node">
<title>main_substation</title>
<path fill="#dae8fc" stroke="black" d="M1618.5,-526.5C1618.5,-526.5 1491.5,-526.5 1491.5,-526.5 1485.5,-526.5 1479.5,-520.5 1479.5,-514.5 1479.5,-514.5 1479.5,-500.5 1479.5,-500.5 1479.5,-494.5 1485.5,-488.5 1491.5,-488.5 1491.5,-488.5 1618.5,-488.5 1618.5,-488.5 1624.5,-488.5 1630.5,-494.5 1630.5,-500.5 1630.5,-500.5 1630.5,-514.5 1630.5,-514.5 1630.5,-520.5 1624.5,-526.5 1618.5,-526.5"/>
<text xml:space="preserve" text-anchor="middle" x="1555" y="-509.2" font-family="SimHei" font-size="14.00">全厂总降压变电站</text>
<text xml:space="preserve" text-anchor="middle" x="1555" y="-494.2" font-family="SimHei" font-size="14.00">(220/35kV, 2x150MVA)</text>
</g>
<!-- source&#45;&gt;main_substation -->
<g id="edge1" class="edge">
<title>source&#45;&gt;main_substation</title>
<path fill="none" stroke="black" d="M1555,-655.02C1555,-655.02 1555,-538.37 1555,-538.37"/>
<polygon fill="black" stroke="black" points="1558.5,-538.37 1555,-528.37 1551.5,-538.37 1558.5,-538.37"/>
<text xml:space="preserve" text-anchor="middle" x="1590.25" y="-592" font-family="SimHei" font-size="10.00">220kV 架空线路</text>
<text xml:space="preserve" text-anchor="middle" x="1590.25" y="-581.5" font-family="SimHei" font-size="10.00">28.5km</text>
</g>
<!-- mining_35kv -->
<g id="node3" class="node">
<title>mining_35kv</title>
<path fill="#dae8fc" stroke="black" d="M648.12,-358.5C648.12,-358.5 557.88,-358.5 557.88,-358.5 551.88,-358.5 545.88,-352.5 545.88,-346.5 545.88,-346.5 545.88,-334.5 545.88,-334.5 545.88,-328.5 551.88,-322.5 557.88,-322.5 557.88,-322.5 648.12,-322.5 648.12,-322.5 654.12,-322.5 660.12,-328.5 660.12,-334.5 660.12,-334.5 660.12,-346.5 660.12,-346.5 660.12,-352.5 654.12,-358.5 648.12,-358.5"/>
<text xml:space="preserve" text-anchor="middle" x="603" y="-334.7" font-family="SimHei" font-size="14.00">采矿35kV变电站</text>
</g>
<!-- main_substation&#45;&gt;mining_35kv -->
<g id="edge2" class="edge">
<title>main_substation&#45;&gt;mining_35kv</title>
<path fill="none" stroke="black" d="M1479.1,-508C1253.57,-508 603,-508 603,-508 603,-508 603,-370.26 603,-370.26"/>
<polygon fill="black" stroke="black" points="606.5,-370.26 603,-360.26 599.5,-370.26 606.5,-370.26"/>
<text xml:space="preserve" text-anchor="middle" x="1075.88" y="-419.75" font-family="SimHei" font-size="10.00">35kV 馈线</text>
</g>
<!-- processing_35kv -->
<g id="node4" class="node">
<title>processing_35kv</title>
<path fill="#dae8fc" stroke="black" d="M1631.62,-358.5C1631.62,-358.5 1478.38,-358.5 1478.38,-358.5 1472.38,-358.5 1466.38,-352.5 1466.38,-346.5 1466.38,-346.5 1466.38,-334.5 1466.38,-334.5 1466.38,-328.5 1472.38,-322.5 1478.38,-322.5 1478.38,-322.5 1631.62,-322.5 1631.62,-322.5 1637.62,-322.5 1643.62,-328.5 1643.62,-334.5 1643.62,-334.5 1643.62,-346.5 1643.62,-346.5 1643.62,-352.5 1637.62,-358.5 1631.62,-358.5"/>
<text xml:space="preserve" text-anchor="middle" x="1555" y="-334.7" font-family="SimHei" font-size="14.00">加工厂35kV变电站 (选矿)</text>
</g>
<!-- main_substation&#45;&gt;processing_35kv -->
<g id="edge3" class="edge">
<title>main_substation&#45;&gt;processing_35kv</title>
<path fill="none" stroke="black" d="M1555,-488.02C1555,-488.02 1555,-370.35 1555,-370.35"/>
<polygon fill="black" stroke="black" points="1558.5,-370.35 1555,-360.35 1551.5,-370.35 1558.5,-370.35"/>
<text xml:space="preserve" text-anchor="middle" x="1577.88" y="-419.75" font-family="SimHei" font-size="10.00">35kV 馈线</text>
</g>
<!-- pelletizing_35kv -->
<g id="node5" class="node">
<title>pelletizing_35kv</title>
<path fill="#dae8fc" stroke="black" d="M2279.25,-359.5C2279.25,-359.5 2174.75,-359.5 2174.75,-359.5 2168.75,-359.5 2162.75,-353.5 2162.75,-347.5 2162.75,-347.5 2162.75,-333.5 2162.75,-333.5 2162.75,-327.5 2168.75,-321.5 2174.75,-321.5 2174.75,-321.5 2279.25,-321.5 2279.25,-321.5 2285.25,-321.5 2291.25,-327.5 2291.25,-333.5 2291.25,-333.5 2291.25,-347.5 2291.25,-347.5 2291.25,-353.5 2285.25,-359.5 2279.25,-359.5"/>
<text xml:space="preserve" text-anchor="middle" x="2227" y="-342.2" font-family="SimHei" font-size="14.00">造粒厂35kV变电站</text>
<text xml:space="preserve" text-anchor="middle" x="2227" y="-327.2" font-family="SimHei" font-size="14.00">(2x31.5MVA)</text>
</g>
<!-- main_substation&#45;&gt;pelletizing_35kv -->
<g id="edge4" class="edge">
<title>main_substation&#45;&gt;pelletizing_35kv</title>
<path fill="none" stroke="black" d="M1630.78,-508C1806.53,-508 2227,-508 2227,-508 2227,-508 2227,-371.23 2227,-371.23"/>
<polygon fill="black" stroke="black" points="2230.5,-371.23 2227,-361.23 2223.5,-371.23 2230.5,-371.23"/>
<text xml:space="preserve" text-anchor="middle" x="1977.62" y="-425" font-family="SimHei" font-size="10.00">35kV 架空线路</text>
<text xml:space="preserve" text-anchor="middle" x="1977.62" y="-414.5" font-family="SimHei" font-size="10.00">13km</text>
</g>
<!-- load_m1 -->
<g id="node6" class="node">
<title>load_m1</title>
<polygon fill="#d5e8d4" stroke="black" points="70,-169 16,-169 16,-59.5 70,-59.5 70,-169"/>
<text xml:space="preserve" text-anchor="start" x="38.12" y="-153.5" font-family="SimHei" font-size="10.00">井</text>
<text xml:space="preserve" text-anchor="start" x="38.12" y="-139" font-family="SimHei" font-size="10.00">下</text>
<text xml:space="preserve" text-anchor="start" x="38.12" y="-124.5" font-family="SimHei" font-size="10.00">中</text>
<text xml:space="preserve" text-anchor="start" x="38.12" y="-110" font-family="SimHei" font-size="10.00">央</text>
<text xml:space="preserve" text-anchor="start" x="38.12" y="-95.5" font-family="SimHei" font-size="10.00">变</text>
<text xml:space="preserve" text-anchor="start" x="38.12" y="-81" font-family="SimHei" font-size="10.00">电</text>
<text xml:space="preserve" text-anchor="start" x="38.12" y="-66.5" font-family="SimHei" font-size="10.00">所</text>
</g>
<!-- mining_35kv&#45;&gt;load_m1 -->
<g id="edge5" class="edge">
<title>mining_35kv&#45;&gt;load_m1</title>
<path fill="none" stroke="black" d="M545.44,-351C402.54,-351 43,-351 43,-351 43,-351 43,-180.97 43,-180.97"/>
<polygon fill="black" stroke="black" points="46.5,-180.97 43,-170.97 39.5,-180.97 46.5,-180.97"/>
</g>
<!-- load_m2 -->
<g id="node7" class="node">
<title>load_m2</title>
<polygon fill="#d5e8d4" stroke="black" points="182,-190.75 128,-190.75 128,-37.75 182,-37.75 182,-190.75"/>
<text xml:space="preserve" text-anchor="start" x="150.12" y="-175.25" font-family="SimHei" font-size="10.00">井</text>
<text xml:space="preserve" text-anchor="start" x="150.12" y="-160.75" font-family="SimHei" font-size="10.00">下</text>
<text xml:space="preserve" text-anchor="start" x="152.38" y="-146.25" font-family="SimHei" font-size="10.00">3</text>
<text xml:space="preserve" text-anchor="start" x="152.38" y="-131.75" font-family="SimHei" font-size="10.00">0</text>
<text xml:space="preserve" text-anchor="start" x="152.38" y="-117.25" font-family="SimHei" font-size="10.00">1</text>
<text xml:space="preserve" text-anchor="start" x="150.12" y="-102.75" font-family="SimHei" font-size="10.00">盘</text>
<text xml:space="preserve" text-anchor="start" x="150.12" y="-88.25" font-family="SimHei" font-size="10.00">区</text>
<text xml:space="preserve" text-anchor="start" x="150.12" y="-73.75" font-family="SimHei" font-size="10.00">变</text>
<text xml:space="preserve" text-anchor="start" x="150.12" y="-59.25" font-family="SimHei" font-size="10.00">电</text>
<text xml:space="preserve" text-anchor="start" x="150.12" y="-44.75" font-family="SimHei" font-size="10.00">所</text>
</g>
<!-- mining_35kv&#45;&gt;load_m2 -->
<g id="edge6" class="edge">
<title>mining_35kv&#45;&gt;load_m2</title>
<path fill="none" stroke="black" d="M545.81,-344C425.03,-344 155,-344 155,-344 155,-344 155,-202.59 155,-202.59"/>
<polygon fill="black" stroke="black" points="158.5,-202.59 155,-192.59 151.5,-202.59 158.5,-202.59"/>
</g>
<!-- load_m3 -->
<g id="node8" class="node">
<title>load_m3</title>
<polygon fill="#d5e8d4" stroke="black" points="294,-190.75 240,-190.75 240,-37.75 294,-37.75 294,-190.75"/>
<text xml:space="preserve" text-anchor="start" x="262.12" y="-175.25" font-family="SimHei" font-size="10.00">井</text>
<text xml:space="preserve" text-anchor="start" x="262.12" y="-160.75" font-family="SimHei" font-size="10.00">下</text>
<text xml:space="preserve" text-anchor="start" x="264.38" y="-146.25" font-family="SimHei" font-size="10.00">3</text>
<text xml:space="preserve" text-anchor="start" x="264.38" y="-131.75" font-family="SimHei" font-size="10.00">0</text>
<text xml:space="preserve" text-anchor="start" x="264.38" y="-117.25" font-family="SimHei" font-size="10.00">2</text>
<text xml:space="preserve" text-anchor="start" x="262.12" y="-102.75" font-family="SimHei" font-size="10.00">盘</text>
<text xml:space="preserve" text-anchor="start" x="262.12" y="-88.25" font-family="SimHei" font-size="10.00">区</text>
<text xml:space="preserve" text-anchor="start" x="262.12" y="-73.75" font-family="SimHei" font-size="10.00">变</text>
<text xml:space="preserve" text-anchor="start" x="262.12" y="-59.25" font-family="SimHei" font-size="10.00">电</text>
<text xml:space="preserve" text-anchor="start" x="262.12" y="-44.75" font-family="SimHei" font-size="10.00">所</text>
</g>
<!-- mining_35kv&#45;&gt;load_m3 -->
<g id="edge7" class="edge">
<title>mining_35kv&#45;&gt;load_m3</title>
<path fill="none" stroke="black" d="M560.94,-322.27C560.94,-279.44 560.94,-176 560.94,-176 560.94,-176 305.9,-176 305.9,-176"/>
<polygon fill="black" stroke="black" points="305.9,-172.5 295.9,-176 305.9,-179.5 305.9,-172.5"/>
</g>
<!-- load_m4 -->
<g id="node9" class="node">
<title>load_m4</title>
<polygon fill="#d5e8d4" stroke="black" points="406,-161.75 352,-161.75 352,-66.75 406,-66.75 406,-161.75"/>
<text xml:space="preserve" text-anchor="start" x="374.12" y="-146.25" font-family="SimHei" font-size="10.00">东</text>
<text xml:space="preserve" text-anchor="start" x="374.12" y="-131.75" font-family="SimHei" font-size="10.00">风</text>
<text xml:space="preserve" text-anchor="start" x="374.12" y="-117.25" font-family="SimHei" font-size="10.00">井</text>
<text xml:space="preserve" text-anchor="start" x="374.12" y="-102.75" font-family="SimHei" font-size="10.00">配</text>
<text xml:space="preserve" text-anchor="start" x="374.12" y="-88.25" font-family="SimHei" font-size="10.00">电</text>
<text xml:space="preserve" text-anchor="start" x="374.12" y="-73.75" font-family="SimHei" font-size="10.00">室</text>
</g>
<!-- mining_35kv&#45;&gt;load_m4 -->
<g id="edge8" class="edge">
<title>mining_35kv&#45;&gt;load_m4</title>
<path fill="none" stroke="black" d="M545.61,-337C479.24,-337 379,-337 379,-337 379,-337 379,-173.55 379,-173.55"/>
<polygon fill="black" stroke="black" points="382.5,-173.55 379,-163.55 375.5,-173.55 382.5,-173.55"/>
</g>
<!-- load_m5 -->
<g id="node10" class="node">
<title>load_m5</title>
<polygon fill="#d5e8d4" stroke="black" points="518,-161.75 464,-161.75 464,-66.75 518,-66.75 518,-161.75"/>
<text xml:space="preserve" text-anchor="start" x="486.12" y="-146.25" font-family="SimHei" font-size="10.00">西</text>
<text xml:space="preserve" text-anchor="start" x="486.12" y="-131.75" font-family="SimHei" font-size="10.00">风</text>
<text xml:space="preserve" text-anchor="start" x="486.12" y="-117.25" font-family="SimHei" font-size="10.00">井</text>
<text xml:space="preserve" text-anchor="start" x="486.12" y="-102.75" font-family="SimHei" font-size="10.00">配</text>
<text xml:space="preserve" text-anchor="start" x="486.12" y="-88.25" font-family="SimHei" font-size="10.00">电</text>
<text xml:space="preserve" text-anchor="start" x="486.12" y="-73.75" font-family="SimHei" font-size="10.00">室</text>
</g>
<!-- mining_35kv&#45;&gt;load_m5 -->
<g id="edge9" class="edge">
<title>mining_35kv&#45;&gt;load_m5</title>
<path fill="none" stroke="black" d="M545.69,-330C518.13,-330 491,-330 491,-330 491,-330 491,-173.65 491,-173.65"/>
<polygon fill="black" stroke="black" points="494.5,-173.65 491,-163.65 487.5,-173.65 494.5,-173.65"/>
</g>
<!-- load_m6 -->
<g id="node11" class="node">
<title>load_m6</title>
<polygon fill="#d5e8d4" stroke="black" points="630,-190.75 576,-190.75 576,-37.75 630,-37.75 630,-190.75"/>
<text xml:space="preserve" text-anchor="start" x="600.38" y="-175.25" font-family="SimHei" font-size="10.00">1</text>
<text xml:space="preserve" text-anchor="start" x="600.38" y="-160.75" font-family="SimHei" font-size="10.00">#</text>
<text xml:space="preserve" text-anchor="start" x="598.12" y="-146.25" font-family="SimHei" font-size="10.00">主</text>
<text xml:space="preserve" text-anchor="start" x="598.12" y="-131.75" font-family="SimHei" font-size="10.00">井</text>
<text xml:space="preserve" text-anchor="start" x="598.12" y="-117.25" font-family="SimHei" font-size="10.00">提</text>
<text xml:space="preserve" text-anchor="start" x="598.12" y="-102.75" font-family="SimHei" font-size="10.00">升</text>
<text xml:space="preserve" text-anchor="start" x="598.12" y="-88.25" font-family="SimHei" font-size="10.00">机</text>
<text xml:space="preserve" text-anchor="start" x="598.12" y="-73.75" font-family="SimHei" font-size="10.00">配</text>
<text xml:space="preserve" text-anchor="start" x="598.12" y="-59.25" font-family="SimHei" font-size="10.00">电</text>
<text xml:space="preserve" text-anchor="start" x="598.12" y="-44.75" font-family="SimHei" font-size="10.00">室</text>
</g>
<!-- mining_35kv&#45;&gt;load_m6 -->
<g id="edge10" class="edge">
<title>mining_35kv&#45;&gt;load_m6</title>
<path fill="none" stroke="black" d="M603,-322.37C603,-322.37 603,-202.58 603,-202.58"/>
<polygon fill="black" stroke="black" points="606.5,-202.58 603,-192.58 599.5,-202.58 606.5,-202.58"/>
</g>
<!-- load_m7 -->
<g id="node12" class="node">
<title>load_m7</title>
<polygon fill="#d5e8d4" stroke="black" points="742,-190.75 688,-190.75 688,-37.75 742,-37.75 742,-190.75"/>
<text xml:space="preserve" text-anchor="start" x="712.38" y="-175.25" font-family="SimHei" font-size="10.00">2</text>
<text xml:space="preserve" text-anchor="start" x="712.38" y="-160.75" font-family="SimHei" font-size="10.00">#</text>
<text xml:space="preserve" text-anchor="start" x="710.12" y="-146.25" font-family="SimHei" font-size="10.00">主</text>
<text xml:space="preserve" text-anchor="start" x="710.12" y="-131.75" font-family="SimHei" font-size="10.00">井</text>
<text xml:space="preserve" text-anchor="start" x="710.12" y="-117.25" font-family="SimHei" font-size="10.00">提</text>
<text xml:space="preserve" text-anchor="start" x="710.12" y="-102.75" font-family="SimHei" font-size="10.00">升</text>
<text xml:space="preserve" text-anchor="start" x="710.12" y="-88.25" font-family="SimHei" font-size="10.00">机</text>
<text xml:space="preserve" text-anchor="start" x="710.12" y="-73.75" font-family="SimHei" font-size="10.00">配</text>
<text xml:space="preserve" text-anchor="start" x="710.12" y="-59.25" font-family="SimHei" font-size="10.00">电</text>
<text xml:space="preserve" text-anchor="start" x="710.12" y="-44.75" font-family="SimHei" font-size="10.00">室</text>
</g>
<!-- mining_35kv&#45;&gt;load_m7 -->
<g id="edge11" class="edge">
<title>mining_35kv&#45;&gt;load_m7</title>
<path fill="none" stroke="black" d="M660.31,-328C687.87,-328 715,-328 715,-328 715,-328 715,-202.63 715,-202.63"/>
<polygon fill="black" stroke="black" points="718.5,-202.63 715,-192.63 711.5,-202.63 718.5,-202.63"/>
</g>
<!-- load_m8 -->
<g id="node13" class="node">
<title>load_m8</title>
<polygon fill="#d5e8d4" stroke="black" points="854,-183.5 800,-183.5 800,-45 854,-45 854,-183.5"/>
<text xml:space="preserve" text-anchor="start" x="822.12" y="-168" font-family="SimHei" font-size="10.00">副</text>
<text xml:space="preserve" text-anchor="start" x="822.12" y="-153.5" font-family="SimHei" font-size="10.00">井</text>
<text xml:space="preserve" text-anchor="start" x="822.12" y="-139" font-family="SimHei" font-size="10.00">提</text>
<text xml:space="preserve" text-anchor="start" x="822.12" y="-124.5" font-family="SimHei" font-size="10.00">升</text>
<text xml:space="preserve" text-anchor="start" x="822.12" y="-110" font-family="SimHei" font-size="10.00">机</text>
<text xml:space="preserve" text-anchor="start" x="822.12" y="-95.5" font-family="SimHei" font-size="10.00">房</text>
<text xml:space="preserve" text-anchor="start" x="822.12" y="-81" font-family="SimHei" font-size="10.00">配</text>
<text xml:space="preserve" text-anchor="start" x="822.12" y="-66.5" font-family="SimHei" font-size="10.00">电</text>
<text xml:space="preserve" text-anchor="start" x="822.12" y="-52" font-family="SimHei" font-size="10.00">室</text>
</g>
<!-- mining_35kv&#45;&gt;load_m8 -->
<g id="edge12" class="edge">
<title>mining_35kv&#45;&gt;load_m8</title>
<path fill="none" stroke="black" d="M660.39,-338C726.76,-338 827,-338 827,-338 827,-338 827,-195.33 827,-195.33"/>
<polygon fill="black" stroke="black" points="830.5,-195.33 827,-185.33 823.5,-195.33 830.5,-195.33"/>
</g>
<!-- load_m9 -->
<g id="node14" class="node">
<title>load_m9</title>
<polygon fill="#d5e8d4" stroke="black" points="966,-198 912,-198 912,-30.5 966,-30.5 966,-198"/>
<text xml:space="preserve" text-anchor="start" x="934.12" y="-182.5" font-family="SimHei" font-size="10.00">副</text>
<text xml:space="preserve" text-anchor="start" x="934.12" y="-168" font-family="SimHei" font-size="10.00">井</text>
<text xml:space="preserve" text-anchor="start" x="934.12" y="-153.5" font-family="SimHei" font-size="10.00">交</text>
<text xml:space="preserve" text-anchor="start" x="934.12" y="-139" font-family="SimHei" font-size="10.00">通</text>
<text xml:space="preserve" text-anchor="start" x="934.12" y="-124.5" font-family="SimHei" font-size="10.00">罐</text>
<text xml:space="preserve" text-anchor="start" x="934.12" y="-110" font-family="SimHei" font-size="10.00">提</text>
<text xml:space="preserve" text-anchor="start" x="934.12" y="-95.5" font-family="SimHei" font-size="10.00">升</text>
<text xml:space="preserve" text-anchor="start" x="934.12" y="-81" font-family="SimHei" font-size="10.00">机</text>
<text xml:space="preserve" text-anchor="start" x="934.12" y="-66.5" font-family="SimHei" font-size="10.00">配</text>
<text xml:space="preserve" text-anchor="start" x="934.12" y="-52" font-family="SimHei" font-size="10.00">电</text>
<text xml:space="preserve" text-anchor="start" x="934.12" y="-37.5" font-family="SimHei" font-size="10.00">室</text>
</g>
<!-- mining_35kv&#45;&gt;load_m9 -->
<g id="edge13" class="edge">
<title>mining_35kv&#45;&gt;load_m9</title>
<path fill="none" stroke="black" d="M645.06,-322.24C645.06,-282.97 645.06,-194 645.06,-194 645.06,-194 900.1,-194 900.1,-194"/>
<polygon fill="black" stroke="black" points="900.1,-197.5 910.1,-194 900.1,-190.5 900.1,-197.5"/>
</g>
<!-- load_m10 -->
<g id="node15" class="node">
<title>load_m10</title>
<polygon fill="#d5e8d4" stroke="black" points="1078,-190.75 1024,-190.75 1024,-37.75 1078,-37.75 1078,-190.75"/>
<text xml:space="preserve" text-anchor="start" x="1046.12" y="-175.25" font-family="SimHei" font-size="10.00">潜</text>
<text xml:space="preserve" text-anchor="start" x="1046.12" y="-160.75" font-family="SimHei" font-size="10.00">水</text>
<text xml:space="preserve" text-anchor="start" x="1046.12" y="-146.25" font-family="SimHei" font-size="10.00">泵</text>
<text xml:space="preserve" text-anchor="start" x="1046.12" y="-131.75" font-family="SimHei" font-size="10.00">泵</text>
<text xml:space="preserve" text-anchor="start" x="1046.12" y="-117.25" font-family="SimHei" font-size="10.00">房</text>
<text xml:space="preserve" text-anchor="start" x="1046.12" y="-102.75" font-family="SimHei" font-size="10.00">地</text>
<text xml:space="preserve" text-anchor="start" x="1046.12" y="-88.25" font-family="SimHei" font-size="10.00">面</text>
<text xml:space="preserve" text-anchor="start" x="1046.12" y="-73.75" font-family="SimHei" font-size="10.00">配</text>
<text xml:space="preserve" text-anchor="start" x="1046.12" y="-59.25" font-family="SimHei" font-size="10.00">电</text>
<text xml:space="preserve" text-anchor="start" x="1046.12" y="-44.75" font-family="SimHei" font-size="10.00">室</text>
</g>
<!-- mining_35kv&#45;&gt;load_m10 -->
<g id="edge14" class="edge">
<title>mining_35kv&#45;&gt;load_m10</title>
<path fill="none" stroke="black" d="M660.19,-353C780.97,-353 1051,-353 1051,-353 1051,-353 1051,-202.62 1051,-202.62"/>
<polygon fill="black" stroke="black" points="1054.5,-202.62 1051,-192.62 1047.5,-202.62 1054.5,-202.62"/>
</g>
<!-- load_p1 -->
<g id="node16" class="node">
<title>load_p1</title>
<polygon fill="#d5e8d4" stroke="black" points="1190,-190.75 1136,-190.75 1136,-37.75 1190,-37.75 1190,-190.75"/>
<text xml:space="preserve" text-anchor="start" x="1158.12" y="-175.25" font-family="SimHei" font-size="10.00">原</text>
<text xml:space="preserve" text-anchor="start" x="1158.12" y="-160.75" font-family="SimHei" font-size="10.00">矿</text>
<text xml:space="preserve" text-anchor="start" x="1158.12" y="-146.25" font-family="SimHei" font-size="10.00">储</text>
<text xml:space="preserve" text-anchor="start" x="1158.12" y="-131.75" font-family="SimHei" font-size="10.00">仓</text>
<text xml:space="preserve" text-anchor="start" x="1158.12" y="-117.25" font-family="SimHei" font-size="10.00">配</text>
<text xml:space="preserve" text-anchor="start" x="1158.12" y="-102.75" font-family="SimHei" font-size="10.00">电</text>
<text xml:space="preserve" text-anchor="start" x="1158.12" y="-88.25" font-family="SimHei" font-size="10.00">室</text>
<text xml:space="preserve" text-anchor="start" x="1160.38" y="-73.75" font-family="SimHei" font-size="10.00">6</text>
<text xml:space="preserve" text-anchor="start" x="1160.38" y="-59.25" font-family="SimHei" font-size="10.00">4</text>
<text xml:space="preserve" text-anchor="start" x="1160.38" y="-44.75" font-family="SimHei" font-size="10.00">1</text>
</g>
<!-- processing_35kv&#45;&gt;load_p1 -->
<g id="edge15" class="edge">
<title>processing_35kv&#45;&gt;load_p1</title>
<path fill="none" stroke="black" d="M1466.05,-348C1350.39,-348 1163,-348 1163,-348 1163,-348 1163,-202.63 1163,-202.63"/>
<polygon fill="black" stroke="black" points="1166.5,-202.63 1163,-192.63 1159.5,-202.63 1166.5,-202.63"/>
</g>
<!-- load_p2 -->
<g id="node17" class="node">
<title>load_p2</title>
<polygon fill="#d5e8d4" stroke="black" points="1302,-176.25 1248,-176.25 1248,-52.25 1302,-52.25 1302,-176.25"/>
<text xml:space="preserve" text-anchor="start" x="1270.12" y="-160.75" font-family="SimHei" font-size="10.00">筛</text>
<text xml:space="preserve" text-anchor="start" x="1270.12" y="-146.25" font-family="SimHei" font-size="10.00">分</text>
<text xml:space="preserve" text-anchor="start" x="1270.12" y="-131.75" font-family="SimHei" font-size="10.00">配</text>
<text xml:space="preserve" text-anchor="start" x="1270.12" y="-117.25" font-family="SimHei" font-size="10.00">电</text>
<text xml:space="preserve" text-anchor="start" x="1270.12" y="-102.75" font-family="SimHei" font-size="10.00">室</text>
<text xml:space="preserve" text-anchor="start" x="1272.38" y="-88.25" font-family="SimHei" font-size="10.00">6</text>
<text xml:space="preserve" text-anchor="start" x="1272.38" y="-73.75" font-family="SimHei" font-size="10.00">4</text>
<text xml:space="preserve" text-anchor="start" x="1272.38" y="-59.25" font-family="SimHei" font-size="10.00">2</text>
</g>
<!-- processing_35kv&#45;&gt;load_p2 -->
<g id="edge16" class="edge">
<title>processing_35kv&#45;&gt;load_p2</title>
<path fill="none" stroke="black" d="M1466.02,-343C1384.03,-343 1275,-343 1275,-343 1275,-343 1275,-187.97 1275,-187.97"/>
<polygon fill="black" stroke="black" points="1278.5,-187.97 1275,-177.97 1271.5,-187.97 1278.5,-187.97"/>
</g>
<!-- load_p3 -->
<g id="node18" class="node">
<title>load_p3</title>
<polygon fill="#d5e8d4" stroke="black" points="1414,-198 1360,-198 1360,-30.5 1414,-30.5 1414,-198"/>
<text xml:space="preserve" text-anchor="start" x="1382.12" y="-182.5" font-family="SimHei" font-size="10.00">分</text>
<text xml:space="preserve" text-anchor="start" x="1382.12" y="-168" font-family="SimHei" font-size="10.00">解</text>
<text xml:space="preserve" text-anchor="start" x="1382.12" y="-153.5" font-family="SimHei" font-size="10.00">结</text>
<text xml:space="preserve" text-anchor="start" x="1382.12" y="-139" font-family="SimHei" font-size="10.00">晶</text>
<text xml:space="preserve" text-anchor="start" x="1382.12" y="-124.5" font-family="SimHei" font-size="10.00">变</text>
<text xml:space="preserve" text-anchor="start" x="1382.12" y="-110" font-family="SimHei" font-size="10.00">配</text>
<text xml:space="preserve" text-anchor="start" x="1382.12" y="-95.5" font-family="SimHei" font-size="10.00">电</text>
<text xml:space="preserve" text-anchor="start" x="1382.12" y="-81" font-family="SimHei" font-size="10.00">室</text>
<text xml:space="preserve" text-anchor="start" x="1384.38" y="-66.5" font-family="SimHei" font-size="10.00">6</text>
<text xml:space="preserve" text-anchor="start" x="1384.38" y="-52" font-family="SimHei" font-size="10.00">4</text>
<text xml:space="preserve" text-anchor="start" x="1384.38" y="-37.5" font-family="SimHei" font-size="10.00">3</text>
</g>
<!-- processing_35kv&#45;&gt;load_p3 -->
<g id="edge17" class="edge">
<title>processing_35kv&#45;&gt;load_p3</title>
<path fill="none" stroke="black" d="M1466.08,-333C1425.78,-333 1387,-333 1387,-333 1387,-333 1387,-209.71 1387,-209.71"/>
<polygon fill="black" stroke="black" points="1390.5,-209.71 1387,-199.71 1383.5,-209.71 1390.5,-209.71"/>
</g>
<!-- load_p4 -->
<g id="node19" class="node">
<title>load_p4</title>
<polygon fill="#d5e8d4" stroke="black" points="1526,-212.5 1472,-212.5 1472,-16 1526,-16 1526,-212.5"/>
<text xml:space="preserve" text-anchor="start" x="1494.12" y="-197" font-family="SimHei" font-size="10.00">选</text>
<text xml:space="preserve" text-anchor="start" x="1494.12" y="-182.5" font-family="SimHei" font-size="10.00">过</text>
<text xml:space="preserve" text-anchor="start" x="1494.12" y="-168" font-family="SimHei" font-size="10.00">滤</text>
<text xml:space="preserve" text-anchor="start" x="1494.12" y="-153.5" font-family="SimHei" font-size="10.00">车</text>
<text xml:space="preserve" text-anchor="start" x="1494.12" y="-139" font-family="SimHei" font-size="10.00">间</text>
<text xml:space="preserve" text-anchor="start" x="1494.12" y="-124.5" font-family="SimHei" font-size="10.00">浮</text>
<text xml:space="preserve" text-anchor="start" x="1494.12" y="-110" font-family="SimHei" font-size="10.00">选</text>
<text xml:space="preserve" text-anchor="start" x="1494.12" y="-95.5" font-family="SimHei" font-size="10.00">配</text>
<text xml:space="preserve" text-anchor="start" x="1494.12" y="-81" font-family="SimHei" font-size="10.00">电</text>
<text xml:space="preserve" text-anchor="start" x="1494.12" y="-66.5" font-family="SimHei" font-size="10.00">室</text>
<text xml:space="preserve" text-anchor="start" x="1496.38" y="-52" font-family="SimHei" font-size="10.00">6</text>
<text xml:space="preserve" text-anchor="start" x="1496.38" y="-37.5" font-family="SimHei" font-size="10.00">4</text>
<text xml:space="preserve" text-anchor="start" x="1496.38" y="-23" font-family="SimHei" font-size="10.00">4</text>
</g>
<!-- processing_35kv&#45;&gt;load_p4 -->
<g id="edge18" class="edge">
<title>processing_35kv&#45;&gt;load_p4</title>
<path fill="none" stroke="black" d="M1499,-322.37C1499,-322.37 1499,-224.49 1499,-224.49"/>
<polygon fill="black" stroke="black" points="1502.5,-224.49 1499,-214.49 1495.5,-224.49 1502.5,-224.49"/>
</g>
<!-- load_p5 -->
<g id="node20" class="node">
<title>load_p5</title>
<polygon fill="#d5e8d4" stroke="black" points="1638,-212.5 1584,-212.5 1584,-16 1638,-16 1638,-212.5"/>
<text xml:space="preserve" text-anchor="start" x="1606.12" y="-197" font-family="SimHei" font-size="10.00">选</text>
<text xml:space="preserve" text-anchor="start" x="1606.12" y="-182.5" font-family="SimHei" font-size="10.00">过</text>
<text xml:space="preserve" text-anchor="start" x="1606.12" y="-168" font-family="SimHei" font-size="10.00">滤</text>
<text xml:space="preserve" text-anchor="start" x="1606.12" y="-153.5" font-family="SimHei" font-size="10.00">车</text>
<text xml:space="preserve" text-anchor="start" x="1606.12" y="-139" font-family="SimHei" font-size="10.00">间</text>
<text xml:space="preserve" text-anchor="start" x="1606.12" y="-124.5" font-family="SimHei" font-size="10.00">过</text>
<text xml:space="preserve" text-anchor="start" x="1606.12" y="-110" font-family="SimHei" font-size="10.00">滤</text>
<text xml:space="preserve" text-anchor="start" x="1606.12" y="-95.5" font-family="SimHei" font-size="10.00">配</text>
<text xml:space="preserve" text-anchor="start" x="1606.12" y="-81" font-family="SimHei" font-size="10.00">电</text>
<text xml:space="preserve" text-anchor="start" x="1606.12" y="-66.5" font-family="SimHei" font-size="10.00">室</text>
<text xml:space="preserve" text-anchor="start" x="1608.38" y="-52" font-family="SimHei" font-size="10.00">6</text>
<text xml:space="preserve" text-anchor="start" x="1608.38" y="-37.5" font-family="SimHei" font-size="10.00">4</text>
<text xml:space="preserve" text-anchor="start" x="1608.38" y="-23" font-family="SimHei" font-size="10.00">5</text>
</g>
<!-- processing_35kv&#45;&gt;load_p5 -->
<g id="edge19" class="edge">
<title>processing_35kv&#45;&gt;load_p5</title>
<path fill="none" stroke="black" d="M1611,-322.37C1611,-322.37 1611,-224.49 1611,-224.49"/>
<polygon fill="black" stroke="black" points="1614.5,-224.49 1611,-214.49 1607.5,-224.49 1614.5,-224.49"/>
</g>
<!-- load_p6 -->
<g id="node21" class="node">
<title>load_p6</title>
<polygon fill="#d5e8d4" stroke="black" points="1750,-183.5 1696,-183.5 1696,-45 1750,-45 1750,-183.5"/>
<text xml:space="preserve" text-anchor="start" x="1718.12" y="-168" font-family="SimHei" font-size="10.00">生</text>
<text xml:space="preserve" text-anchor="start" x="1718.12" y="-153.5" font-family="SimHei" font-size="10.00">活</text>
<text xml:space="preserve" text-anchor="start" x="1718.12" y="-139" font-family="SimHei" font-size="10.00">区</text>
<text xml:space="preserve" text-anchor="start" x="1718.12" y="-124.5" font-family="SimHei" font-size="10.00">变</text>
<text xml:space="preserve" text-anchor="start" x="1718.12" y="-110" font-family="SimHei" font-size="10.00">电</text>
<text xml:space="preserve" text-anchor="start" x="1718.12" y="-95.5" font-family="SimHei" font-size="10.00">所</text>
<text xml:space="preserve" text-anchor="start" x="1720.38" y="-81" font-family="SimHei" font-size="10.00">3</text>
<text xml:space="preserve" text-anchor="start" x="1720.38" y="-66.5" font-family="SimHei" font-size="10.00">2</text>
<text xml:space="preserve" text-anchor="start" x="1720.38" y="-52" font-family="SimHei" font-size="10.00">0</text>
</g>
<!-- processing_35kv&#45;&gt;load_p6 -->
<g id="edge20" class="edge">
<title>processing_35kv&#45;&gt;load_p6</title>
<path fill="none" stroke="black" d="M1643.92,-337C1684.22,-337 1723,-337 1723,-337 1723,-337 1723,-195.33 1723,-195.33"/>
<polygon fill="black" stroke="black" points="1726.5,-195.33 1723,-185.33 1719.5,-195.33 1726.5,-195.33"/>
</g>
<!-- load_p7 -->
<g id="node22" class="node">
<title>load_p7</title>
<polygon fill="#d5e8d4" stroke="black" points="1862,-190.75 1808,-190.75 1808,-37.75 1862,-37.75 1862,-190.75"/>
<text xml:space="preserve" text-anchor="start" x="1830.12" y="-175.25" font-family="SimHei" font-size="10.00">熔</text>
<text xml:space="preserve" text-anchor="start" x="1830.12" y="-160.75" font-family="SimHei" font-size="10.00">炼</text>
<text xml:space="preserve" text-anchor="start" x="1830.12" y="-146.25" font-family="SimHei" font-size="10.00">装</text>
<text xml:space="preserve" text-anchor="start" x="1830.12" y="-131.75" font-family="SimHei" font-size="10.00">置</text>
<text xml:space="preserve" text-anchor="start" x="1830.12" y="-117.25" font-family="SimHei" font-size="10.00">变</text>
<text xml:space="preserve" text-anchor="start" x="1830.12" y="-102.75" font-family="SimHei" font-size="10.00">电</text>
<text xml:space="preserve" text-anchor="start" x="1830.12" y="-88.25" font-family="SimHei" font-size="10.00">所</text>
<text xml:space="preserve" text-anchor="start" x="1832.38" y="-73.75" font-family="SimHei" font-size="10.00">3</text>
<text xml:space="preserve" text-anchor="start" x="1832.38" y="-59.25" font-family="SimHei" font-size="10.00">1</text>
<text xml:space="preserve" text-anchor="start" x="1832.38" y="-44.75" font-family="SimHei" font-size="10.00">0</text>
</g>
<!-- processing_35kv&#45;&gt;load_p7 -->
<g id="edge21" class="edge">
<title>processing_35kv&#45;&gt;load_p7</title>
<path fill="none" stroke="black" d="M1643.98,-344C1725.97,-344 1835,-344 1835,-344 1835,-344 1835,-202.59 1835,-202.59"/>
<polygon fill="black" stroke="black" points="1838.5,-202.59 1835,-192.59 1831.5,-202.59 1838.5,-202.59"/>
</g>
<!-- load_p8 -->
<g id="node23" class="node">
<title>load_p8</title>
<polygon fill="#d5e8d4" stroke="black" points="1974,-190.75 1920,-190.75 1920,-37.75 1974,-37.75 1974,-190.75"/>
<text xml:space="preserve" text-anchor="start" x="1942.12" y="-175.25" font-family="SimHei" font-size="10.00">提</text>
<text xml:space="preserve" text-anchor="start" x="1942.12" y="-160.75" font-family="SimHei" font-size="10.00">溴</text>
<text xml:space="preserve" text-anchor="start" x="1942.12" y="-146.25" font-family="SimHei" font-size="10.00">装</text>
<text xml:space="preserve" text-anchor="start" x="1942.12" y="-131.75" font-family="SimHei" font-size="10.00">置</text>
<text xml:space="preserve" text-anchor="start" x="1942.12" y="-117.25" font-family="SimHei" font-size="10.00">变</text>
<text xml:space="preserve" text-anchor="start" x="1942.12" y="-102.75" font-family="SimHei" font-size="10.00">电</text>
<text xml:space="preserve" text-anchor="start" x="1942.12" y="-88.25" font-family="SimHei" font-size="10.00">所</text>
<text xml:space="preserve" text-anchor="start" x="1944.38" y="-73.75" font-family="SimHei" font-size="10.00">3</text>
<text xml:space="preserve" text-anchor="start" x="1944.38" y="-59.25" font-family="SimHei" font-size="10.00">1</text>
<text xml:space="preserve" text-anchor="start" x="1944.38" y="-44.75" font-family="SimHei" font-size="10.00">1</text>
</g>
<!-- processing_35kv&#45;&gt;load_p8 -->
<g id="edge22" class="edge">
<title>processing_35kv&#45;&gt;load_p8</title>
<path fill="none" stroke="black" d="M1643.95,-351C1759.61,-351 1947,-351 1947,-351 1947,-351 1947,-202.63 1947,-202.63"/>
<polygon fill="black" stroke="black" points="1950.5,-202.63 1947,-192.63 1943.5,-202.63 1950.5,-202.63"/>
</g>
<!-- load_g1 -->
<g id="node24" class="node">
<title>load_g1</title>
<polygon fill="#d5e8d4" stroke="black" points="2086,-190.75 2032,-190.75 2032,-37.75 2086,-37.75 2086,-190.75"/>
<text xml:space="preserve" text-anchor="start" x="2054.12" y="-175.25" font-family="SimHei" font-size="10.00">精</text>
<text xml:space="preserve" text-anchor="start" x="2054.12" y="-160.75" font-family="SimHei" font-size="10.00">矿</text>
<text xml:space="preserve" text-anchor="start" x="2054.12" y="-146.25" font-family="SimHei" font-size="10.00">脱</text>
<text xml:space="preserve" text-anchor="start" x="2054.12" y="-131.75" font-family="SimHei" font-size="10.00">卤</text>
<text xml:space="preserve" text-anchor="start" x="2054.12" y="-117.25" font-family="SimHei" font-size="10.00">变</text>
<text xml:space="preserve" text-anchor="start" x="2054.12" y="-102.75" font-family="SimHei" font-size="10.00">电</text>
<text xml:space="preserve" text-anchor="start" x="2054.12" y="-88.25" font-family="SimHei" font-size="10.00">所</text>
<text xml:space="preserve" text-anchor="start" x="2056.38" y="-73.75" font-family="SimHei" font-size="10.00">3</text>
<text xml:space="preserve" text-anchor="start" x="2056.38" y="-59.25" font-family="SimHei" font-size="10.00">1</text>
<text xml:space="preserve" text-anchor="start" x="2056.38" y="-44.75" font-family="SimHei" font-size="10.00">5</text>
</g>
<!-- pelletizing_35kv&#45;&gt;load_g1 -->
<g id="edge23" class="edge">
<title>pelletizing_35kv&#45;&gt;load_g1</title>
<path fill="none" stroke="black" d="M2162.53,-330C2115.15,-330 2059,-330 2059,-330 2059,-330 2059,-202.74 2059,-202.74"/>
<polygon fill="black" stroke="black" points="2062.5,-202.74 2059,-192.74 2055.5,-202.74 2062.5,-202.74"/>
</g>
<!-- load_g2 -->
<g id="node25" class="node">
<title>load_g2</title>
<polygon fill="#d5e8d4" stroke="black" points="2198,-190.75 2144,-190.75 2144,-37.75 2198,-37.75 2198,-190.75"/>
<text xml:space="preserve" text-anchor="start" x="2166.12" y="-175.25" font-family="SimHei" font-size="10.00">干</text>
<text xml:space="preserve" text-anchor="start" x="2166.12" y="-160.75" font-family="SimHei" font-size="10.00">燥</text>
<text xml:space="preserve" text-anchor="start" x="2166.12" y="-146.25" font-family="SimHei" font-size="10.00">储</text>
<text xml:space="preserve" text-anchor="start" x="2166.12" y="-131.75" font-family="SimHei" font-size="10.00">运</text>
<text xml:space="preserve" text-anchor="start" x="2166.12" y="-117.25" font-family="SimHei" font-size="10.00">变</text>
<text xml:space="preserve" text-anchor="start" x="2166.12" y="-102.75" font-family="SimHei" font-size="10.00">电</text>
<text xml:space="preserve" text-anchor="start" x="2166.12" y="-88.25" font-family="SimHei" font-size="10.00">所</text>
<text xml:space="preserve" text-anchor="start" x="2168.38" y="-73.75" font-family="SimHei" font-size="10.00">3</text>
<text xml:space="preserve" text-anchor="start" x="2168.38" y="-59.25" font-family="SimHei" font-size="10.00">1</text>
<text xml:space="preserve" text-anchor="start" x="2168.38" y="-44.75" font-family="SimHei" font-size="10.00">6</text>
</g>
<!-- pelletizing_35kv&#45;&gt;load_g2 -->
<g id="edge24" class="edge">
<title>pelletizing_35kv&#45;&gt;load_g2</title>
<path fill="none" stroke="black" d="M2180.38,-321.21C2180.38,-321.21 2180.38,-202.72 2180.38,-202.72"/>
<polygon fill="black" stroke="black" points="2183.88,-202.72 2180.38,-192.72 2176.88,-202.72 2183.88,-202.72"/>
</g>
<!-- load_g3 -->
<g id="node26" class="node">
<title>load_g3</title>
<polygon fill="#d5e8d4" stroke="black" points="2310,-176.25 2256,-176.25 2256,-52.25 2310,-52.25 2310,-176.25"/>
<text xml:space="preserve" text-anchor="start" x="2278.12" y="-160.75" font-family="SimHei" font-size="10.00">陆</text>
<text xml:space="preserve" text-anchor="start" x="2278.12" y="-146.25" font-family="SimHei" font-size="10.00">域</text>
<text xml:space="preserve" text-anchor="start" x="2278.12" y="-131.75" font-family="SimHei" font-size="10.00">变</text>
<text xml:space="preserve" text-anchor="start" x="2278.12" y="-117.25" font-family="SimHei" font-size="10.00">电</text>
<text xml:space="preserve" text-anchor="start" x="2278.12" y="-102.75" font-family="SimHei" font-size="10.00">所</text>
<text xml:space="preserve" text-anchor="start" x="2280.38" y="-88.25" font-family="SimHei" font-size="10.00">3</text>
<text xml:space="preserve" text-anchor="start" x="2280.38" y="-73.75" font-family="SimHei" font-size="10.00">1</text>
<text xml:space="preserve" text-anchor="start" x="2280.38" y="-59.25" font-family="SimHei" font-size="10.00">7</text>
</g>
<!-- pelletizing_35kv&#45;&gt;load_g3 -->
<g id="edge25" class="edge">
<title>pelletizing_35kv&#45;&gt;load_g3</title>
<path fill="none" stroke="black" d="M2267.75,-321.21C2267.75,-321.21 2267.75,-187.81 2267.75,-187.81"/>
<polygon fill="black" stroke="black" points="2271.25,-187.81 2267.75,-177.81 2264.25,-187.81 2271.25,-187.81"/>
</g>
<!-- load_g4 -->
<g id="node27" class="node">
<title>load_g4</title>
<polygon fill="#d5e8d4" stroke="black" points="2422,-190.75 2368,-190.75 2368,-37.75 2422,-37.75 2422,-190.75"/>
<text xml:space="preserve" text-anchor="start" x="2390.12" y="-175.25" font-family="SimHei" font-size="10.00">盐</text>
<text xml:space="preserve" text-anchor="start" x="2390.12" y="-160.75" font-family="SimHei" font-size="10.00">水</text>
<text xml:space="preserve" text-anchor="start" x="2390.12" y="-146.25" font-family="SimHei" font-size="10.00">排</text>
<text xml:space="preserve" text-anchor="start" x="2390.12" y="-131.75" font-family="SimHei" font-size="10.00">海</text>
<text xml:space="preserve" text-anchor="start" x="2390.12" y="-117.25" font-family="SimHei" font-size="10.00">配</text>
<text xml:space="preserve" text-anchor="start" x="2390.12" y="-102.75" font-family="SimHei" font-size="10.00">电</text>
<text xml:space="preserve" text-anchor="start" x="2390.12" y="-88.25" font-family="SimHei" font-size="10.00">室</text>
<text xml:space="preserve" text-anchor="start" x="2392.38" y="-73.75" font-family="SimHei" font-size="10.00">3</text>
<text xml:space="preserve" text-anchor="start" x="2392.38" y="-59.25" font-family="SimHei" font-size="10.00">1</text>
<text xml:space="preserve" text-anchor="start" x="2392.38" y="-44.75" font-family="SimHei" font-size="10.00">8</text>
</g>
<!-- pelletizing_35kv&#45;&gt;load_g4 -->
<g id="edge26" class="edge">
<title>pelletizing_35kv&#45;&gt;load_g4</title>
<path fill="none" stroke="black" d="M2279.5,-321.31C2279.5,-279.52 2279.5,-184 2279.5,-184 2279.5,-184 2356.11,-184 2356.11,-184"/>
<polygon fill="black" stroke="black" points="2356.11,-187.5 2366.11,-184 2356.11,-180.5 2356.11,-187.5"/>
</g>
<!-- load_g5 -->
<g id="node28" class="node">
<title>load_g5</title>
<polygon fill="#d5e8d4" stroke="black" points="2534,-190.75 2480,-190.75 2480,-37.75 2534,-37.75 2534,-190.75"/>
<text xml:space="preserve" text-anchor="start" x="2502.12" y="-175.25" font-family="SimHei" font-size="10.00">造</text>
<text xml:space="preserve" text-anchor="start" x="2502.12" y="-160.75" font-family="SimHei" font-size="10.00">粒</text>
<text xml:space="preserve" text-anchor="start" x="2502.12" y="-146.25" font-family="SimHei" font-size="10.00">车</text>
<text xml:space="preserve" text-anchor="start" x="2502.12" y="-131.75" font-family="SimHei" font-size="10.00">间</text>
<text xml:space="preserve" text-anchor="start" x="2502.12" y="-117.25" font-family="SimHei" font-size="10.00">变</text>
<text xml:space="preserve" text-anchor="start" x="2502.12" y="-102.75" font-family="SimHei" font-size="10.00">电</text>
<text xml:space="preserve" text-anchor="start" x="2502.12" y="-88.25" font-family="SimHei" font-size="10.00">所</text>
<text xml:space="preserve" text-anchor="start" x="2504.38" y="-73.75" font-family="SimHei" font-size="10.00">8</text>
<text xml:space="preserve" text-anchor="start" x="2504.38" y="-59.25" font-family="SimHei" font-size="10.00">7</text>
<text xml:space="preserve" text-anchor="start" x="2504.38" y="-44.75" font-family="SimHei" font-size="10.00">4</text>
</g>
<!-- pelletizing_35kv&#45;&gt;load_g5 -->
<g id="edge27" class="edge">
<title>pelletizing_35kv&#45;&gt;load_g5</title>
<path fill="none" stroke="black" d="M2291.59,-341C2374.28,-341 2507,-341 2507,-341 2507,-341 2507,-202.53 2507,-202.53"/>
<polygon fill="black" stroke="black" points="2510.5,-202.53 2507,-192.53 2503.5,-202.53 2510.5,-202.53"/>
</g>
</g>
</svg>
