<?xml version="1.0" encoding="UTF-8" standalone="no"?>
<!DOCTYPE svg PUBLIC "-//W3C//DTD SVG 1.1//EN"
 "http://www.w3.org/Graphics/SVG/1.1/DTD/svg11.dtd">
<!-- Generated by graphviz version 13.1.0 (20250701.0955)
 -->
<!-- Title: Power_Grid_Diagram_Final_Spaced Pages: 1 -->
<svg width="3742pt" height="4437pt"
 viewBox="0.00 0.00 3742.00 4437.00" xmlns="http://www.w3.org/2000/svg" xmlns:xlink="http://www.w3.org/1999/xlink">
<g id="graph0" class="graph" transform="scale(1 1) rotate(0) translate(4 4433)">
<title>Power_Grid_Diagram_Final_Spaced</title>
<polygon fill="white" stroke="none" points="-4,4 -4,-4433 3738,-4433 3738,4 -4,4"/>
<g id="clust1" class="cluster">
<title>cluster_mining</title>
<polygon fill="none" stroke="black" points="8,-8 8,-3934.25 96,-3934.25 96,-8 8,-8"/>
</g>
<g id="clust2" class="cluster">
<title>cluster_processing</title>
<polygon fill="none" stroke="black" points="2150,-836.5 2150,-3956 2238,-3956 2238,-836.5 2150,-836.5"/>
</g>
<g id="clust3" class="cluster">
<title>cluster_pelletizing</title>
<polygon fill="none" stroke="black" points="3638,-2079.25 3638,-3956 3726,-3956 3726,-2079.25 3638,-2079.25"/>
</g>
<!-- source -->
<g id="node1" class="node">
<title>source</title>
<path fill="#f8cecc" stroke="black" d="M2382.75,-4429C2382.75,-4429 2287.25,-4429 2287.25,-4429 2281.25,-4429 2275.25,-4423 2275.25,-4417 2275.25,-4417 2275.25,-4403 2275.25,-4403 2275.25,-4397 2281.25,-4391 2287.25,-4391 2287.25,-4391 2382.75,-4391 2382.75,-4391 2388.75,-4391 2394.75,-4397 2394.75,-4403 2394.75,-4403 2394.75,-4417 2394.75,-4417 2394.75,-4423 2388.75,-4429 2382.75,-4429"/>
<text xml:space="preserve" text-anchor="middle" x="2335" y="-4411.7" font-family="SimHei" font-size="14.00">220kV 电源</text>
<text xml:space="preserve" text-anchor="middle" x="2335" y="-4396.7" font-family="SimHei" font-size="14.00">(Mboudi 变电站)</text>
</g>
<!-- main_substation -->
<g id="node2" class="node">
<title>main_substation</title>
<path fill="#dae8fc" stroke="black" d="M2398.5,-4262C2398.5,-4262 2271.5,-4262 2271.5,-4262 2265.5,-4262 2259.5,-4256 2259.5,-4250 2259.5,-4250 2259.5,-4236 2259.5,-4236 2259.5,-4230 2265.5,-4224 2271.5,-4224 2271.5,-4224 2398.5,-4224 2398.5,-4224 2404.5,-4224 2410.5,-4230 2410.5,-4236 2410.5,-4236 2410.5,-4250 2410.5,-4250 2410.5,-4256 2404.5,-4262 2398.5,-4262"/>
<text xml:space="preserve" text-anchor="middle" x="2335" y="-4244.7" font-family="SimHei" font-size="14.00">全厂总降压变电站</text>
<text xml:space="preserve" text-anchor="middle" x="2335" y="-4229.7" font-family="SimHei" font-size="14.00">(220/35kV, 2x150MVA)</text>
</g>
<!-- source&#45;&gt;main_substation -->
<g id="edge1" class="edge">
<title>source&#45;&gt;main_substation</title>
<path fill="none" stroke="black" d="M2335,-4390.52C2335,-4390.52 2335,-4273.87 2335,-4273.87"/>
<polygon fill="black" stroke="black" points="2338.5,-4273.87 2335,-4263.87 2331.5,-4273.87 2338.5,-4273.87"/>
<text xml:space="preserve" text-anchor="middle" x="2370.25" y="-4327.5" font-family="SimHei" font-size="10.00">220kV 架空线路</text>
<text xml:space="preserve" text-anchor="middle" x="2370.25" y="-4317" font-family="SimHei" font-size="10.00">28.5km</text>
</g>
<!-- mining_35kv -->
<g id="node3" class="node">
<title>mining_35kv</title>
<path fill="#dae8fc" stroke="black" d="M514.12,-4094C514.12,-4094 423.88,-4094 423.88,-4094 417.88,-4094 411.88,-4088 411.88,-4082 411.88,-4082 411.88,-4070 411.88,-4070 411.88,-4064 417.88,-4058 423.88,-4058 423.88,-4058 514.12,-4058 514.12,-4058 520.12,-4058 526.12,-4064 526.12,-4070 526.12,-4070 526.12,-4082 526.12,-4082 526.12,-4088 520.12,-4094 514.12,-4094"/>
<text xml:space="preserve" text-anchor="middle" x="469" y="-4070.2" font-family="SimHei" font-size="14.00">采矿35kV变电站</text>
</g>
<!-- main_substation&#45;&gt;mining_35kv -->
<g id="edge2" class="edge">
<title>main_substation&#45;&gt;mining_35kv</title>
<path fill="none" stroke="black" d="M2259.25,-4243C1909.64,-4243 469,-4243 469,-4243 469,-4243 469,-4105.7 469,-4105.7"/>
<polygon fill="black" stroke="black" points="472.5,-4105.7 469,-4095.7 465.5,-4105.7 472.5,-4105.7"/>
<text xml:space="preserve" text-anchor="middle" x="1415.88" y="-4155.25" font-family="SimHei" font-size="10.00">35kV 馈线</text>
</g>
<!-- processing_35kv -->
<g id="node4" class="node">
<title>processing_35kv</title>
<path fill="#dae8fc" stroke="black" d="M2411.62,-4094C2411.62,-4094 2258.38,-4094 2258.38,-4094 2252.38,-4094 2246.38,-4088 2246.38,-4082 2246.38,-4082 2246.38,-4070 2246.38,-4070 2246.38,-4064 2252.38,-4058 2258.38,-4058 2258.38,-4058 2411.62,-4058 2411.62,-4058 2417.62,-4058 2423.62,-4064 2423.62,-4070 2423.62,-4070 2423.62,-4082 2423.62,-4082 2423.62,-4088 2417.62,-4094 2411.62,-4094"/>
<text xml:space="preserve" text-anchor="middle" x="2335" y="-4070.2" font-family="SimHei" font-size="14.00">加工厂35kV变电站 (选矿)</text>
</g>
<!-- main_substation&#45;&gt;processing_35kv -->
<g id="edge3" class="edge">
<title>main_substation&#45;&gt;processing_35kv</title>
<path fill="none" stroke="black" d="M2335,-4223.52C2335,-4223.52 2335,-4105.85 2335,-4105.85"/>
<polygon fill="black" stroke="black" points="2338.5,-4105.85 2335,-4095.85 2331.5,-4105.85 2338.5,-4105.85"/>
<text xml:space="preserve" text-anchor="middle" x="2357.88" y="-4155.25" font-family="SimHei" font-size="10.00">35kV 馈线</text>
</g>
<!-- pelletizing_35kv -->
<g id="node5" class="node">
<title>pelletizing_35kv</title>
<path fill="#dae8fc" stroke="black" d="M3610.25,-4095C3610.25,-4095 3505.75,-4095 3505.75,-4095 3499.75,-4095 3493.75,-4089 3493.75,-4083 3493.75,-4083 3493.75,-4069 3493.75,-4069 3493.75,-4063 3499.75,-4057 3505.75,-4057 3505.75,-4057 3610.25,-4057 3610.25,-4057 3616.25,-4057 3622.25,-4063 3622.25,-4069 3622.25,-4069 3622.25,-4083 3622.25,-4083 3622.25,-4089 3616.25,-4095 3610.25,-4095"/>
<text xml:space="preserve" text-anchor="middle" x="3558" y="-4077.7" font-family="SimHei" font-size="14.00">造粒厂35kV变电站</text>
<text xml:space="preserve" text-anchor="middle" x="3558" y="-4062.7" font-family="SimHei" font-size="14.00">(2x31.5MVA)</text>
</g>
<!-- main_substation&#45;&gt;pelletizing_35kv -->
<g id="edge4" class="edge">
<title>main_substation&#45;&gt;pelletizing_35kv</title>
<path fill="none" stroke="black" d="M2410.58,-4243C2677.22,-4243 3558,-4243 3558,-4243 3558,-4243 3558,-4107 3558,-4107"/>
<polygon fill="black" stroke="black" points="3561.5,-4107 3558,-4097 3554.5,-4107 3561.5,-4107"/>
<text xml:space="preserve" text-anchor="middle" x="3091.62" y="-4160.5" font-family="SimHei" font-size="10.00">35kV 架空线路</text>
<text xml:space="preserve" text-anchor="middle" x="3091.62" y="-4150" font-family="SimHei" font-size="10.00">13km</text>
</g>
<!-- load_m1 -->
<g id="node6" class="node">
<title>load_m1</title>
<polygon fill="#d5e8d4" stroke="black" points="85,-3926.25 31,-3926.25 31,-3816.75 85,-3816.75 85,-3926.25"/>
<text xml:space="preserve" text-anchor="start" x="53.12" y="-3910.75" font-family="SimHei" font-size="10.00">井</text>
<text xml:space="preserve" text-anchor="start" x="53.12" y="-3896.25" font-family="SimHei" font-size="10.00">下</text>
<text xml:space="preserve" text-anchor="start" x="53.12" y="-3881.75" font-family="SimHei" font-size="10.00">中</text>
<text xml:space="preserve" text-anchor="start" x="53.12" y="-3867.25" font-family="SimHei" font-size="10.00">央</text>
<text xml:space="preserve" text-anchor="start" x="53.12" y="-3852.75" font-family="SimHei" font-size="10.00">变</text>
<text xml:space="preserve" text-anchor="start" x="53.12" y="-3838.25" font-family="SimHei" font-size="10.00">电</text>
<text xml:space="preserve" text-anchor="start" x="53.12" y="-3823.75" font-family="SimHei" font-size="10.00">所</text>
</g>
<!-- mining_35kv&#45;&gt;load_m1 -->
<g id="edge5" class="edge">
<title>mining_35kv&#45;&gt;load_m1</title>
<path fill="none" stroke="black" d="M411.42,-4076C298.31,-4076 58,-4076 58,-4076 58,-4076 58,-3938.08 58,-3938.08"/>
<polygon fill="black" stroke="black" points="61.5,-3938.08 58,-3928.08 54.5,-3938.08 61.5,-3938.08"/>
</g>
<!-- load_m2 -->
<g id="node8" class="node">
<title>load_m2</title>
<polygon fill="#d5e8d4" stroke="black" points="79,-3541 25,-3541 25,-3388 79,-3388 79,-3541"/>
<text xml:space="preserve" text-anchor="start" x="47.12" y="-3525.5" font-family="SimHei" font-size="10.00">井</text>
<text xml:space="preserve" text-anchor="start" x="47.12" y="-3511" font-family="SimHei" font-size="10.00">下</text>
<text xml:space="preserve" text-anchor="start" x="49.38" y="-3496.5" font-family="SimHei" font-size="10.00">3</text>
<text xml:space="preserve" text-anchor="start" x="49.38" y="-3482" font-family="SimHei" font-size="10.00">0</text>
<text xml:space="preserve" text-anchor="start" x="49.38" y="-3467.5" font-family="SimHei" font-size="10.00">1</text>
<text xml:space="preserve" text-anchor="start" x="47.12" y="-3453" font-family="SimHei" font-size="10.00">盘</text>
<text xml:space="preserve" text-anchor="start" x="47.12" y="-3438.5" font-family="SimHei" font-size="10.00">区</text>
<text xml:space="preserve" text-anchor="start" x="47.12" y="-3424" font-family="SimHei" font-size="10.00">变</text>
<text xml:space="preserve" text-anchor="start" x="47.12" y="-3409.5" font-family="SimHei" font-size="10.00">电</text>
<text xml:space="preserve" text-anchor="start" x="47.12" y="-3395" font-family="SimHei" font-size="10.00">所</text>
</g>
<!-- mining_35kv&#45;&gt;load_m2 -->
<g id="edge8" class="edge">
<title>mining_35kv&#45;&gt;load_m2</title>
<path fill="none" stroke="black" d="M423.3,-4057.72C423.3,-3963.4 423.3,-3536 423.3,-3536 423.3,-3536 90.82,-3536 90.82,-3536"/>
<polygon fill="black" stroke="black" points="90.82,-3532.5 80.82,-3536 90.82,-3539.5 90.82,-3532.5"/>
</g>
<!-- load_m3 -->
<g id="node10" class="node">
<title>load_m3</title>
<polygon fill="#d5e8d4" stroke="black" points="79,-3126.75 25,-3126.75 25,-2973.75 79,-2973.75 79,-3126.75"/>
<text xml:space="preserve" text-anchor="start" x="47.12" y="-3111.25" font-family="SimHei" font-size="10.00">井</text>
<text xml:space="preserve" text-anchor="start" x="47.12" y="-3096.75" font-family="SimHei" font-size="10.00">下</text>
<text xml:space="preserve" text-anchor="start" x="49.38" y="-3082.25" font-family="SimHei" font-size="10.00">3</text>
<text xml:space="preserve" text-anchor="start" x="49.38" y="-3067.75" font-family="SimHei" font-size="10.00">0</text>
<text xml:space="preserve" text-anchor="start" x="49.38" y="-3053.25" font-family="SimHei" font-size="10.00">2</text>
<text xml:space="preserve" text-anchor="start" x="47.12" y="-3038.75" font-family="SimHei" font-size="10.00">盘</text>
<text xml:space="preserve" text-anchor="start" x="47.12" y="-3024.25" font-family="SimHei" font-size="10.00">区</text>
<text xml:space="preserve" text-anchor="start" x="47.12" y="-3009.75" font-family="SimHei" font-size="10.00">变</text>
<text xml:space="preserve" text-anchor="start" x="47.12" y="-2995.25" font-family="SimHei" font-size="10.00">电</text>
<text xml:space="preserve" text-anchor="start" x="47.12" y="-2980.75" font-family="SimHei" font-size="10.00">所</text>
</g>
<!-- mining_35kv&#45;&gt;load_m3 -->
<g id="edge11" class="edge">
<title>mining_35kv&#45;&gt;load_m3</title>
<path fill="none" stroke="black" d="M434.73,-4057.76C434.73,-3920.1 434.73,-3050 434.73,-3050 434.73,-3050 90.73,-3050 90.73,-3050"/>
<polygon fill="black" stroke="black" points="90.73,-3046.5 80.73,-3050 90.73,-3053.5 90.73,-3046.5"/>
</g>
<!-- load_m4 -->
<g id="node12" class="node">
<title>load_m4</title>
<polygon fill="#d5e8d4" stroke="black" points="79,-2661.75 25,-2661.75 25,-2566.75 79,-2566.75 79,-2661.75"/>
<text xml:space="preserve" text-anchor="start" x="47.12" y="-2646.25" font-family="SimHei" font-size="10.00">东</text>
<text xml:space="preserve" text-anchor="start" x="47.12" y="-2631.75" font-family="SimHei" font-size="10.00">风</text>
<text xml:space="preserve" text-anchor="start" x="47.12" y="-2617.25" font-family="SimHei" font-size="10.00">井</text>
<text xml:space="preserve" text-anchor="start" x="47.12" y="-2602.75" font-family="SimHei" font-size="10.00">配</text>
<text xml:space="preserve" text-anchor="start" x="47.12" y="-2588.25" font-family="SimHei" font-size="10.00">电</text>
<text xml:space="preserve" text-anchor="start" x="47.12" y="-2573.75" font-family="SimHei" font-size="10.00">室</text>
</g>
<!-- mining_35kv&#45;&gt;load_m4 -->
<g id="edge14" class="edge">
<title>mining_35kv&#45;&gt;load_m4</title>
<path fill="none" stroke="black" d="M446.15,-4057.51C446.15,-3888.28 446.15,-2614 446.15,-2614 446.15,-2614 90.92,-2614 90.92,-2614"/>
<polygon fill="black" stroke="black" points="90.92,-2610.5 80.92,-2614 90.92,-2617.5 90.92,-2610.5"/>
</g>
<!-- load_m5 -->
<g id="node14" class="node">
<title>load_m5</title>
<polygon fill="#d5e8d4" stroke="black" points="79,-2211.25 25,-2211.25 25,-2116.25 79,-2116.25 79,-2211.25"/>
<text xml:space="preserve" text-anchor="start" x="47.12" y="-2195.75" font-family="SimHei" font-size="10.00">西</text>
<text xml:space="preserve" text-anchor="start" x="47.12" y="-2181.25" font-family="SimHei" font-size="10.00">风</text>
<text xml:space="preserve" text-anchor="start" x="47.12" y="-2166.75" font-family="SimHei" font-size="10.00">井</text>
<text xml:space="preserve" text-anchor="start" x="47.12" y="-2152.25" font-family="SimHei" font-size="10.00">配</text>
<text xml:space="preserve" text-anchor="start" x="47.12" y="-2137.75" font-family="SimHei" font-size="10.00">电</text>
<text xml:space="preserve" text-anchor="start" x="47.12" y="-2123.25" font-family="SimHei" font-size="10.00">室</text>
</g>
<!-- mining_35kv&#45;&gt;load_m5 -->
<g id="edge17" class="edge">
<title>mining_35kv&#45;&gt;load_m5</title>
<path fill="none" stroke="black" d="M457.58,-4057.69C457.58,-3862.02 457.58,-2164 457.58,-2164 457.58,-2164 90.75,-2164 90.75,-2164"/>
<polygon fill="black" stroke="black" points="90.75,-2160.5 80.75,-2164 90.75,-2167.5 90.75,-2160.5"/>
</g>
<!-- load_m6 -->
<g id="node16" class="node">
<title>load_m6</title>
<polygon fill="#d5e8d4" stroke="black" points="79,-1811.5 25,-1811.5 25,-1658.5 79,-1658.5 79,-1811.5"/>
<text xml:space="preserve" text-anchor="start" x="49.38" y="-1796" font-family="SimHei" font-size="10.00">1</text>
<text xml:space="preserve" text-anchor="start" x="49.38" y="-1781.5" font-family="SimHei" font-size="10.00">#</text>
<text xml:space="preserve" text-anchor="start" x="47.12" y="-1767" font-family="SimHei" font-size="10.00">主</text>
<text xml:space="preserve" text-anchor="start" x="47.12" y="-1752.5" font-family="SimHei" font-size="10.00">井</text>
<text xml:space="preserve" text-anchor="start" x="47.12" y="-1738" font-family="SimHei" font-size="10.00">提</text>
<text xml:space="preserve" text-anchor="start" x="47.12" y="-1723.5" font-family="SimHei" font-size="10.00">升</text>
<text xml:space="preserve" text-anchor="start" x="47.12" y="-1709" font-family="SimHei" font-size="10.00">机</text>
<text xml:space="preserve" text-anchor="start" x="47.12" y="-1694.5" font-family="SimHei" font-size="10.00">配</text>
<text xml:space="preserve" text-anchor="start" x="47.12" y="-1680" font-family="SimHei" font-size="10.00">电</text>
<text xml:space="preserve" text-anchor="start" x="47.12" y="-1665.5" font-family="SimHei" font-size="10.00">室</text>
</g>
<!-- mining_35kv&#45;&gt;load_m6 -->
<g id="edge20" class="edge">
<title>mining_35kv&#45;&gt;load_m6</title>
<path fill="none" stroke="black" d="M469,-4057.74C469,-3843.1 469,-1808 469,-1808 469,-1808 90.87,-1808 90.87,-1808"/>
<polygon fill="black" stroke="black" points="90.87,-1804.5 80.87,-1808 90.87,-1811.5 90.87,-1804.5"/>
</g>
<!-- load_m7 -->
<g id="node18" class="node">
<title>load_m7</title>
<polygon fill="#d5e8d4" stroke="black" points="79,-1404.5 25,-1404.5 25,-1251.5 79,-1251.5 79,-1404.5"/>
<text xml:space="preserve" text-anchor="start" x="49.38" y="-1389" font-family="SimHei" font-size="10.00">2</text>
<text xml:space="preserve" text-anchor="start" x="49.38" y="-1374.5" font-family="SimHei" font-size="10.00">#</text>
<text xml:space="preserve" text-anchor="start" x="47.12" y="-1360" font-family="SimHei" font-size="10.00">主</text>
<text xml:space="preserve" text-anchor="start" x="47.12" y="-1345.5" font-family="SimHei" font-size="10.00">井</text>
<text xml:space="preserve" text-anchor="start" x="47.12" y="-1331" font-family="SimHei" font-size="10.00">提</text>
<text xml:space="preserve" text-anchor="start" x="47.12" y="-1316.5" font-family="SimHei" font-size="10.00">升</text>
<text xml:space="preserve" text-anchor="start" x="47.12" y="-1302" font-family="SimHei" font-size="10.00">机</text>
<text xml:space="preserve" text-anchor="start" x="47.12" y="-1287.5" font-family="SimHei" font-size="10.00">配</text>
<text xml:space="preserve" text-anchor="start" x="47.12" y="-1273" font-family="SimHei" font-size="10.00">电</text>
<text xml:space="preserve" text-anchor="start" x="47.12" y="-1258.5" font-family="SimHei" font-size="10.00">室</text>
</g>
<!-- mining_35kv&#45;&gt;load_m7 -->
<g id="edge23" class="edge">
<title>mining_35kv&#45;&gt;load_m7</title>
<path fill="none" stroke="black" d="M480.42,-4057.73C480.42,-3819.3 480.42,-1328 480.42,-1328 480.42,-1328 90.97,-1328 90.97,-1328"/>
<polygon fill="black" stroke="black" points="90.97,-1324.5 80.97,-1328 90.97,-1331.5 90.97,-1324.5"/>
</g>
<!-- load_m8 -->
<g id="node20" class="node">
<title>load_m8</title>
<polygon fill="#d5e8d4" stroke="black" points="79,-990.25 25,-990.25 25,-851.75 79,-851.75 79,-990.25"/>
<text xml:space="preserve" text-anchor="start" x="47.12" y="-974.75" font-family="SimHei" font-size="10.00">副</text>
<text xml:space="preserve" text-anchor="start" x="47.12" y="-960.25" font-family="SimHei" font-size="10.00">井</text>
<text xml:space="preserve" text-anchor="start" x="47.12" y="-945.75" font-family="SimHei" font-size="10.00">提</text>
<text xml:space="preserve" text-anchor="start" x="47.12" y="-931.25" font-family="SimHei" font-size="10.00">升</text>
<text xml:space="preserve" text-anchor="start" x="47.12" y="-916.75" font-family="SimHei" font-size="10.00">机</text>
<text xml:space="preserve" text-anchor="start" x="47.12" y="-902.25" font-family="SimHei" font-size="10.00">房</text>
<text xml:space="preserve" text-anchor="start" x="47.12" y="-887.75" font-family="SimHei" font-size="10.00">配</text>
<text xml:space="preserve" text-anchor="start" x="47.12" y="-873.25" font-family="SimHei" font-size="10.00">电</text>
<text xml:space="preserve" text-anchor="start" x="47.12" y="-858.75" font-family="SimHei" font-size="10.00">室</text>
</g>
<!-- mining_35kv&#45;&gt;load_m8 -->
<g id="edge26" class="edge">
<title>mining_35kv&#45;&gt;load_m8</title>
<path fill="none" stroke="black" d="M491.85,-4057.87C491.85,-3801.85 491.85,-921 491.85,-921 491.85,-921 90.7,-921 90.7,-921"/>
<polygon fill="black" stroke="black" points="90.7,-917.5 80.7,-921 90.7,-924.5 90.7,-917.5"/>
</g>
<!-- load_m9 -->
<g id="node22" class="node">
<title>load_m9</title>
<polygon fill="#d5e8d4" stroke="black" points="79,-590.5 25,-590.5 25,-423 79,-423 79,-590.5"/>
<text xml:space="preserve" text-anchor="start" x="47.12" y="-575" font-family="SimHei" font-size="10.00">副</text>
<text xml:space="preserve" text-anchor="start" x="47.12" y="-560.5" font-family="SimHei" font-size="10.00">井</text>
<text xml:space="preserve" text-anchor="start" x="47.12" y="-546" font-family="SimHei" font-size="10.00">交</text>
<text xml:space="preserve" text-anchor="start" x="47.12" y="-531.5" font-family="SimHei" font-size="10.00">通</text>
<text xml:space="preserve" text-anchor="start" x="47.12" y="-517" font-family="SimHei" font-size="10.00">罐</text>
<text xml:space="preserve" text-anchor="start" x="47.12" y="-502.5" font-family="SimHei" font-size="10.00">提</text>
<text xml:space="preserve" text-anchor="start" x="47.12" y="-488" font-family="SimHei" font-size="10.00">升</text>
<text xml:space="preserve" text-anchor="start" x="47.12" y="-473.5" font-family="SimHei" font-size="10.00">机</text>
<text xml:space="preserve" text-anchor="start" x="47.12" y="-459" font-family="SimHei" font-size="10.00">配</text>
<text xml:space="preserve" text-anchor="start" x="47.12" y="-444.5" font-family="SimHei" font-size="10.00">电</text>
<text xml:space="preserve" text-anchor="start" x="47.12" y="-430" font-family="SimHei" font-size="10.00">室</text>
</g>
<!-- mining_35kv&#45;&gt;load_m9 -->
<g id="edge29" class="edge">
<title>mining_35kv&#45;&gt;load_m9</title>
<path fill="none" stroke="black" d="M503.28,-4057.65C503.28,-3782.55 503.28,-507 503.28,-507 503.28,-507 90.73,-507 90.73,-507"/>
<polygon fill="black" stroke="black" points="90.73,-503.5 80.73,-507 90.73,-510.5 90.73,-503.5"/>
</g>
<!-- load_m10 -->
<g id="node24" class="node">
<title>load_m10</title>
<polygon fill="#d5e8d4" stroke="black" points="85,-169 31,-169 31,-16 85,-16 85,-169"/>
<text xml:space="preserve" text-anchor="start" x="53.12" y="-153.5" font-family="SimHei" font-size="10.00">潜</text>
<text xml:space="preserve" text-anchor="start" x="53.12" y="-139" font-family="SimHei" font-size="10.00">水</text>
<text xml:space="preserve" text-anchor="start" x="53.12" y="-124.5" font-family="SimHei" font-size="10.00">泵</text>
<text xml:space="preserve" text-anchor="start" x="53.12" y="-110" font-family="SimHei" font-size="10.00">泵</text>
<text xml:space="preserve" text-anchor="start" x="53.12" y="-95.5" font-family="SimHei" font-size="10.00">房</text>
<text xml:space="preserve" text-anchor="start" x="53.12" y="-81" font-family="SimHei" font-size="10.00">地</text>
<text xml:space="preserve" text-anchor="start" x="53.12" y="-66.5" font-family="SimHei" font-size="10.00">面</text>
<text xml:space="preserve" text-anchor="start" x="53.12" y="-52" font-family="SimHei" font-size="10.00">配</text>
<text xml:space="preserve" text-anchor="start" x="53.12" y="-37.5" font-family="SimHei" font-size="10.00">电</text>
<text xml:space="preserve" text-anchor="start" x="53.12" y="-23" font-family="SimHei" font-size="10.00">室</text>
</g>
<!-- mining_35kv&#45;&gt;load_m10 -->
<g id="edge32" class="edge">
<title>mining_35kv&#45;&gt;load_m10</title>
<path fill="none" stroke="black" d="M514.7,-4057.8C514.7,-3767.17 514.7,-93 514.7,-93 514.7,-93 96.71,-93 96.71,-93"/>
<polygon fill="black" stroke="black" points="96.71,-89.5 86.71,-93 96.71,-96.5 96.71,-89.5"/>
</g>
<!-- load_p1 -->
<g id="node25" class="node">
<title>load_p1</title>
<polygon fill="#d5e8d4" stroke="black" points="2227,-3948 2173,-3948 2173,-3795 2227,-3795 2227,-3948"/>
<text xml:space="preserve" text-anchor="start" x="2195.12" y="-3932.5" font-family="SimHei" font-size="10.00">原</text>
<text xml:space="preserve" text-anchor="start" x="2195.12" y="-3918" font-family="SimHei" font-size="10.00">矿</text>
<text xml:space="preserve" text-anchor="start" x="2195.12" y="-3903.5" font-family="SimHei" font-size="10.00">储</text>
<text xml:space="preserve" text-anchor="start" x="2195.12" y="-3889" font-family="SimHei" font-size="10.00">仓</text>
<text xml:space="preserve" text-anchor="start" x="2195.12" y="-3874.5" font-family="SimHei" font-size="10.00">配</text>
<text xml:space="preserve" text-anchor="start" x="2195.12" y="-3860" font-family="SimHei" font-size="10.00">电</text>
<text xml:space="preserve" text-anchor="start" x="2195.12" y="-3845.5" font-family="SimHei" font-size="10.00">室</text>
<text xml:space="preserve" text-anchor="start" x="2197.38" y="-3831" font-family="SimHei" font-size="10.00">6</text>
<text xml:space="preserve" text-anchor="start" x="2197.38" y="-3816.5" font-family="SimHei" font-size="10.00">4</text>
<text xml:space="preserve" text-anchor="start" x="2197.38" y="-3802" font-family="SimHei" font-size="10.00">1</text>
</g>
<!-- processing_35kv&#45;&gt;load_p1 -->
<g id="edge33" class="edge">
<title>processing_35kv&#45;&gt;load_p1</title>
<path fill="none" stroke="black" d="M2246.08,-4076C2220.81,-4076 2200,-4076 2200,-4076 2200,-4076 2200,-3959.74 2200,-3959.74"/>
<polygon fill="black" stroke="black" points="2203.5,-3959.74 2200,-3949.74 2196.5,-3959.74 2203.5,-3959.74"/>
</g>
<!-- load_p2 -->
<g id="node27" class="node">
<title>load_p2</title>
<polygon fill="#d5e8d4" stroke="black" points="2221,-3526.5 2167,-3526.5 2167,-3402.5 2221,-3402.5 2221,-3526.5"/>
<text xml:space="preserve" text-anchor="start" x="2189.12" y="-3511" font-family="SimHei" font-size="10.00">筛</text>
<text xml:space="preserve" text-anchor="start" x="2189.12" y="-3496.5" font-family="SimHei" font-size="10.00">分</text>
<text xml:space="preserve" text-anchor="start" x="2189.12" y="-3482" font-family="SimHei" font-size="10.00">配</text>
<text xml:space="preserve" text-anchor="start" x="2189.12" y="-3467.5" font-family="SimHei" font-size="10.00">电</text>
<text xml:space="preserve" text-anchor="start" x="2189.12" y="-3453" font-family="SimHei" font-size="10.00">室</text>
<text xml:space="preserve" text-anchor="start" x="2191.38" y="-3438.5" font-family="SimHei" font-size="10.00">6</text>
<text xml:space="preserve" text-anchor="start" x="2191.38" y="-3424" font-family="SimHei" font-size="10.00">4</text>
<text xml:space="preserve" text-anchor="start" x="2191.38" y="-3409.5" font-family="SimHei" font-size="10.00">2</text>
</g>
<!-- processing_35kv&#45;&gt;load_p2 -->
<g id="edge36" class="edge">
<title>processing_35kv&#45;&gt;load_p2</title>
<path fill="none" stroke="black" d="M2268.53,-4057.71C2268.53,-3956.05 2268.53,-3465 2268.53,-3465 2268.53,-3465 2232.84,-3465 2232.84,-3465"/>
<polygon fill="black" stroke="black" points="2232.84,-3461.5 2222.84,-3465 2232.84,-3468.5 2232.84,-3461.5"/>
</g>
<!-- load_p3 -->
<g id="node29" class="node">
<title>load_p3</title>
<polygon fill="#d5e8d4" stroke="black" points="2221,-3134 2167,-3134 2167,-2966.5 2221,-2966.5 2221,-3134"/>
<text xml:space="preserve" text-anchor="start" x="2189.12" y="-3118.5" font-family="SimHei" font-size="10.00">分</text>
<text xml:space="preserve" text-anchor="start" x="2189.12" y="-3104" font-family="SimHei" font-size="10.00">解</text>
<text xml:space="preserve" text-anchor="start" x="2189.12" y="-3089.5" font-family="SimHei" font-size="10.00">结</text>
<text xml:space="preserve" text-anchor="start" x="2189.12" y="-3075" font-family="SimHei" font-size="10.00">晶</text>
<text xml:space="preserve" text-anchor="start" x="2189.12" y="-3060.5" font-family="SimHei" font-size="10.00">变</text>
<text xml:space="preserve" text-anchor="start" x="2189.12" y="-3046" font-family="SimHei" font-size="10.00">配</text>
<text xml:space="preserve" text-anchor="start" x="2189.12" y="-3031.5" font-family="SimHei" font-size="10.00">电</text>
<text xml:space="preserve" text-anchor="start" x="2189.12" y="-3017" font-family="SimHei" font-size="10.00">室</text>
<text xml:space="preserve" text-anchor="start" x="2191.38" y="-3002.5" font-family="SimHei" font-size="10.00">6</text>
<text xml:space="preserve" text-anchor="start" x="2191.38" y="-2988" font-family="SimHei" font-size="10.00">4</text>
<text xml:space="preserve" text-anchor="start" x="2191.38" y="-2973.5" font-family="SimHei" font-size="10.00">3</text>
</g>
<!-- processing_35kv&#45;&gt;load_p3 -->
<g id="edge39" class="edge">
<title>processing_35kv&#45;&gt;load_p3</title>
<path fill="none" stroke="black" d="M2290.69,-4057.81C2290.69,-3926.06 2290.69,-3123 2290.69,-3123 2290.69,-3123 2232.96,-3123 2232.96,-3123"/>
<polygon fill="black" stroke="black" points="2232.96,-3119.5 2222.96,-3123 2232.96,-3126.5 2232.96,-3119.5"/>
</g>
<!-- load_p4 -->
<g id="node31" class="node">
<title>load_p4</title>
<polygon fill="#d5e8d4" stroke="black" points="2221,-2712.5 2167,-2712.5 2167,-2516 2221,-2516 2221,-2712.5"/>
<text xml:space="preserve" text-anchor="start" x="2189.12" y="-2697" font-family="SimHei" font-size="10.00">选</text>
<text xml:space="preserve" text-anchor="start" x="2189.12" y="-2682.5" font-family="SimHei" font-size="10.00">过</text>
<text xml:space="preserve" text-anchor="start" x="2189.12" y="-2668" font-family="SimHei" font-size="10.00">滤</text>
<text xml:space="preserve" text-anchor="start" x="2189.12" y="-2653.5" font-family="SimHei" font-size="10.00">车</text>
<text xml:space="preserve" text-anchor="start" x="2189.12" y="-2639" font-family="SimHei" font-size="10.00">间</text>
<text xml:space="preserve" text-anchor="start" x="2189.12" y="-2624.5" font-family="SimHei" font-size="10.00">浮</text>
<text xml:space="preserve" text-anchor="start" x="2189.12" y="-2610" font-family="SimHei" font-size="10.00">选</text>
<text xml:space="preserve" text-anchor="start" x="2189.12" y="-2595.5" font-family="SimHei" font-size="10.00">配</text>
<text xml:space="preserve" text-anchor="start" x="2189.12" y="-2581" font-family="SimHei" font-size="10.00">电</text>
<text xml:space="preserve" text-anchor="start" x="2189.12" y="-2566.5" font-family="SimHei" font-size="10.00">室</text>
<text xml:space="preserve" text-anchor="start" x="2191.38" y="-2552" font-family="SimHei" font-size="10.00">6</text>
<text xml:space="preserve" text-anchor="start" x="2191.38" y="-2537.5" font-family="SimHei" font-size="10.00">4</text>
<text xml:space="preserve" text-anchor="start" x="2191.38" y="-2523" font-family="SimHei" font-size="10.00">4</text>
</g>
<!-- processing_35kv&#45;&gt;load_p4 -->
<g id="edge42" class="edge">
<title>processing_35kv&#45;&gt;load_p4</title>
<path fill="none" stroke="black" d="M2312.84,-4057.62C2312.84,-3894.57 2312.84,-2702 2312.84,-2702 2312.84,-2702 2232.78,-2702 2232.78,-2702"/>
<polygon fill="black" stroke="black" points="2232.78,-2698.5 2222.78,-2702 2232.78,-2705.5 2232.78,-2698.5"/>
</g>
<!-- load_p5 -->
<g id="node33" class="node">
<title>load_p5</title>
<polygon fill="#d5e8d4" stroke="black" points="2221,-2262 2167,-2262 2167,-2065.5 2221,-2065.5 2221,-2262"/>
<text xml:space="preserve" text-anchor="start" x="2189.12" y="-2246.5" font-family="SimHei" font-size="10.00">选</text>
<text xml:space="preserve" text-anchor="start" x="2189.12" y="-2232" font-family="SimHei" font-size="10.00">过</text>
<text xml:space="preserve" text-anchor="start" x="2189.12" y="-2217.5" font-family="SimHei" font-size="10.00">滤</text>
<text xml:space="preserve" text-anchor="start" x="2189.12" y="-2203" font-family="SimHei" font-size="10.00">车</text>
<text xml:space="preserve" text-anchor="start" x="2189.12" y="-2188.5" font-family="SimHei" font-size="10.00">间</text>
<text xml:space="preserve" text-anchor="start" x="2189.12" y="-2174" font-family="SimHei" font-size="10.00">过</text>
<text xml:space="preserve" text-anchor="start" x="2189.12" y="-2159.5" font-family="SimHei" font-size="10.00">滤</text>
<text xml:space="preserve" text-anchor="start" x="2189.12" y="-2145" font-family="SimHei" font-size="10.00">配</text>
<text xml:space="preserve" text-anchor="start" x="2189.12" y="-2130.5" font-family="SimHei" font-size="10.00">电</text>
<text xml:space="preserve" text-anchor="start" x="2189.12" y="-2116" font-family="SimHei" font-size="10.00">室</text>
<text xml:space="preserve" text-anchor="start" x="2191.38" y="-2101.5" font-family="SimHei" font-size="10.00">6</text>
<text xml:space="preserve" text-anchor="start" x="2191.38" y="-2087" font-family="SimHei" font-size="10.00">4</text>
<text xml:space="preserve" text-anchor="start" x="2191.38" y="-2072.5" font-family="SimHei" font-size="10.00">5</text>
</g>
<!-- processing_35kv&#45;&gt;load_p5 -->
<g id="edge45" class="edge">
<title>processing_35kv&#45;&gt;load_p5</title>
<path fill="none" stroke="black" d="M2335,-4057.64C2335,-3866.72 2335,-2251 2335,-2251 2335,-2251 2232.7,-2251 2232.7,-2251"/>
<polygon fill="black" stroke="black" points="2232.7,-2247.5 2222.7,-2251 2232.7,-2254.5 2232.7,-2247.5"/>
</g>
<!-- load_p6 -->
<g id="node35" class="node">
<title>load_p6</title>
<polygon fill="#d5e8d4" stroke="black" points="2221,-1804.25 2167,-1804.25 2167,-1665.75 2221,-1665.75 2221,-1804.25"/>
<text xml:space="preserve" text-anchor="start" x="2189.12" y="-1788.75" font-family="SimHei" font-size="10.00">生</text>
<text xml:space="preserve" text-anchor="start" x="2189.12" y="-1774.25" font-family="SimHei" font-size="10.00">活</text>
<text xml:space="preserve" text-anchor="start" x="2189.12" y="-1759.75" font-family="SimHei" font-size="10.00">区</text>
<text xml:space="preserve" text-anchor="start" x="2189.12" y="-1745.25" font-family="SimHei" font-size="10.00">变</text>
<text xml:space="preserve" text-anchor="start" x="2189.12" y="-1730.75" font-family="SimHei" font-size="10.00">电</text>
<text xml:space="preserve" text-anchor="start" x="2189.12" y="-1716.25" font-family="SimHei" font-size="10.00">所</text>
<text xml:space="preserve" text-anchor="start" x="2191.38" y="-1701.75" font-family="SimHei" font-size="10.00">3</text>
<text xml:space="preserve" text-anchor="start" x="2191.38" y="-1687.25" font-family="SimHei" font-size="10.00">2</text>
<text xml:space="preserve" text-anchor="start" x="2191.38" y="-1672.75" font-family="SimHei" font-size="10.00">0</text>
</g>
<!-- processing_35kv&#45;&gt;load_p6 -->
<g id="edge48" class="edge">
<title>processing_35kv&#45;&gt;load_p6</title>
<path fill="none" stroke="black" d="M2357.16,-4057.84C2357.16,-3839.94 2357.16,-1735 2357.16,-1735 2357.16,-1735 2232.82,-1735 2232.82,-1735"/>
<polygon fill="black" stroke="black" points="2232.82,-1731.5 2222.82,-1735 2232.82,-1738.5 2232.82,-1731.5"/>
</g>
<!-- load_p7 -->
<g id="node37" class="node">
<title>load_p7</title>
<polygon fill="#d5e8d4" stroke="black" points="2221,-1404.5 2167,-1404.5 2167,-1251.5 2221,-1251.5 2221,-1404.5"/>
<text xml:space="preserve" text-anchor="start" x="2189.12" y="-1389" font-family="SimHei" font-size="10.00">熔</text>
<text xml:space="preserve" text-anchor="start" x="2189.12" y="-1374.5" font-family="SimHei" font-size="10.00">炼</text>
<text xml:space="preserve" text-anchor="start" x="2189.12" y="-1360" font-family="SimHei" font-size="10.00">装</text>
<text xml:space="preserve" text-anchor="start" x="2189.12" y="-1345.5" font-family="SimHei" font-size="10.00">置</text>
<text xml:space="preserve" text-anchor="start" x="2189.12" y="-1331" font-family="SimHei" font-size="10.00">变</text>
<text xml:space="preserve" text-anchor="start" x="2189.12" y="-1316.5" font-family="SimHei" font-size="10.00">电</text>
<text xml:space="preserve" text-anchor="start" x="2189.12" y="-1302" font-family="SimHei" font-size="10.00">所</text>
<text xml:space="preserve" text-anchor="start" x="2191.38" y="-1287.5" font-family="SimHei" font-size="10.00">3</text>
<text xml:space="preserve" text-anchor="start" x="2191.38" y="-1273" font-family="SimHei" font-size="10.00">1</text>
<text xml:space="preserve" text-anchor="start" x="2191.38" y="-1258.5" font-family="SimHei" font-size="10.00">0</text>
</g>
<!-- processing_35kv&#45;&gt;load_p7 -->
<g id="edge51" class="edge">
<title>processing_35kv&#45;&gt;load_p7</title>
<path fill="none" stroke="black" d="M2379.31,-4057.73C2379.31,-3819.3 2379.31,-1328 2379.31,-1328 2379.31,-1328 2232.86,-1328 2232.86,-1328"/>
<polygon fill="black" stroke="black" points="2232.86,-1324.5 2222.86,-1328 2232.86,-1331.5 2232.86,-1324.5"/>
</g>
<!-- load_p8 -->
<g id="node39" class="node">
<title>load_p8</title>
<polygon fill="#d5e8d4" stroke="black" points="2216,-997.5 2162,-997.5 2162,-844.5 2216,-844.5 2216,-997.5"/>
<text xml:space="preserve" text-anchor="start" x="2184.12" y="-982" font-family="SimHei" font-size="10.00">提</text>
<text xml:space="preserve" text-anchor="start" x="2184.12" y="-967.5" font-family="SimHei" font-size="10.00">溴</text>
<text xml:space="preserve" text-anchor="start" x="2184.12" y="-953" font-family="SimHei" font-size="10.00">装</text>
<text xml:space="preserve" text-anchor="start" x="2184.12" y="-938.5" font-family="SimHei" font-size="10.00">置</text>
<text xml:space="preserve" text-anchor="start" x="2184.12" y="-924" font-family="SimHei" font-size="10.00">变</text>
<text xml:space="preserve" text-anchor="start" x="2184.12" y="-909.5" font-family="SimHei" font-size="10.00">电</text>
<text xml:space="preserve" text-anchor="start" x="2184.12" y="-895" font-family="SimHei" font-size="10.00">所</text>
<text xml:space="preserve" text-anchor="start" x="2186.38" y="-880.5" font-family="SimHei" font-size="10.00">3</text>
<text xml:space="preserve" text-anchor="start" x="2186.38" y="-866" font-family="SimHei" font-size="10.00">1</text>
<text xml:space="preserve" text-anchor="start" x="2186.38" y="-851.5" font-family="SimHei" font-size="10.00">1</text>
</g>
<!-- processing_35kv&#45;&gt;load_p8 -->
<g id="edge54" class="edge">
<title>processing_35kv&#45;&gt;load_p8</title>
<path fill="none" stroke="black" d="M2401.47,-4057.87C2401.47,-3801.85 2401.47,-921 2401.47,-921 2401.47,-921 2227.86,-921 2227.86,-921"/>
<polygon fill="black" stroke="black" points="2227.86,-917.5 2217.86,-921 2227.86,-924.5 2227.86,-917.5"/>
</g>
<!-- load_g1 -->
<g id="node40" class="node">
<title>load_g1</title>
<polygon fill="#d5e8d4" stroke="black" points="3703,-3948 3649,-3948 3649,-3795 3703,-3795 3703,-3948"/>
<text xml:space="preserve" text-anchor="start" x="3671.12" y="-3932.5" font-family="SimHei" font-size="10.00">精</text>
<text xml:space="preserve" text-anchor="start" x="3671.12" y="-3918" font-family="SimHei" font-size="10.00">矿</text>
<text xml:space="preserve" text-anchor="start" x="3671.12" y="-3903.5" font-family="SimHei" font-size="10.00">脱</text>
<text xml:space="preserve" text-anchor="start" x="3671.12" y="-3889" font-family="SimHei" font-size="10.00">卤</text>
<text xml:space="preserve" text-anchor="start" x="3671.12" y="-3874.5" font-family="SimHei" font-size="10.00">变</text>
<text xml:space="preserve" text-anchor="start" x="3671.12" y="-3860" font-family="SimHei" font-size="10.00">电</text>
<text xml:space="preserve" text-anchor="start" x="3671.12" y="-3845.5" font-family="SimHei" font-size="10.00">所</text>
<text xml:space="preserve" text-anchor="start" x="3673.38" y="-3831" font-family="SimHei" font-size="10.00">3</text>
<text xml:space="preserve" text-anchor="start" x="3673.38" y="-3816.5" font-family="SimHei" font-size="10.00">1</text>
<text xml:space="preserve" text-anchor="start" x="3673.38" y="-3802" font-family="SimHei" font-size="10.00">5</text>
</g>
<!-- pelletizing_35kv&#45;&gt;load_g1 -->
<g id="edge55" class="edge">
<title>pelletizing_35kv&#45;&gt;load_g1</title>
<path fill="none" stroke="black" d="M3622.52,-4076C3650.07,-4076 3676,-4076 3676,-4076 3676,-4076 3676,-3959.74 3676,-3959.74"/>
<polygon fill="black" stroke="black" points="3679.5,-3959.74 3676,-3949.74 3672.5,-3959.74 3679.5,-3959.74"/>
</g>
<!-- load_g2 -->
<g id="node42" class="node">
<title>load_g2</title>
<polygon fill="#d5e8d4" stroke="black" points="3709,-3541 3655,-3541 3655,-3388 3709,-3388 3709,-3541"/>
<text xml:space="preserve" text-anchor="start" x="3677.12" y="-3525.5" font-family="SimHei" font-size="10.00">干</text>
<text xml:space="preserve" text-anchor="start" x="3677.12" y="-3511" font-family="SimHei" font-size="10.00">燥</text>
<text xml:space="preserve" text-anchor="start" x="3677.12" y="-3496.5" font-family="SimHei" font-size="10.00">储</text>
<text xml:space="preserve" text-anchor="start" x="3677.12" y="-3482" font-family="SimHei" font-size="10.00">运</text>
<text xml:space="preserve" text-anchor="start" x="3677.12" y="-3467.5" font-family="SimHei" font-size="10.00">变</text>
<text xml:space="preserve" text-anchor="start" x="3677.12" y="-3453" font-family="SimHei" font-size="10.00">电</text>
<text xml:space="preserve" text-anchor="start" x="3677.12" y="-3438.5" font-family="SimHei" font-size="10.00">所</text>
<text xml:space="preserve" text-anchor="start" x="3679.38" y="-3424" font-family="SimHei" font-size="10.00">3</text>
<text xml:space="preserve" text-anchor="start" x="3679.38" y="-3409.5" font-family="SimHei" font-size="10.00">1</text>
<text xml:space="preserve" text-anchor="start" x="3679.38" y="-3395" font-family="SimHei" font-size="10.00">6</text>
</g>
<!-- pelletizing_35kv&#45;&gt;load_g2 -->
<g id="edge58" class="edge">
<title>pelletizing_35kv&#45;&gt;load_g2</title>
<path fill="none" stroke="black" d="M3596.55,-4056.6C3596.55,-3959.52 3596.55,-3531 3596.55,-3531 3596.55,-3531 3643.45,-3531 3643.45,-3531"/>
<polygon fill="black" stroke="black" points="3643.45,-3534.5 3653.45,-3531 3643.45,-3527.5 3643.45,-3534.5"/>
</g>
<!-- load_g3 -->
<g id="node44" class="node">
<title>load_g3</title>
<polygon fill="#d5e8d4" stroke="black" points="3709,-3112.25 3655,-3112.25 3655,-2988.25 3709,-2988.25 3709,-3112.25"/>
<text xml:space="preserve" text-anchor="start" x="3677.12" y="-3096.75" font-family="SimHei" font-size="10.00">陆</text>
<text xml:space="preserve" text-anchor="start" x="3677.12" y="-3082.25" font-family="SimHei" font-size="10.00">域</text>
<text xml:space="preserve" text-anchor="start" x="3677.12" y="-3067.75" font-family="SimHei" font-size="10.00">变</text>
<text xml:space="preserve" text-anchor="start" x="3677.12" y="-3053.25" font-family="SimHei" font-size="10.00">电</text>
<text xml:space="preserve" text-anchor="start" x="3677.12" y="-3038.75" font-family="SimHei" font-size="10.00">所</text>
<text xml:space="preserve" text-anchor="start" x="3679.38" y="-3024.25" font-family="SimHei" font-size="10.00">3</text>
<text xml:space="preserve" text-anchor="start" x="3679.38" y="-3009.75" font-family="SimHei" font-size="10.00">1</text>
<text xml:space="preserve" text-anchor="start" x="3679.38" y="-2995.25" font-family="SimHei" font-size="10.00">7</text>
</g>
<!-- pelletizing_35kv&#45;&gt;load_g3 -->
<g id="edge61" class="edge">
<title>pelletizing_35kv&#45;&gt;load_g3</title>
<path fill="none" stroke="black" d="M3570.85,-4056.87C3570.85,-3916.42 3570.85,-3050 3570.85,-3050 3570.85,-3050 3643.01,-3050 3643.01,-3050"/>
<polygon fill="black" stroke="black" points="3643.01,-3053.5 3653.01,-3050 3643.01,-3046.5 3643.01,-3053.5"/>
</g>
<!-- load_g4 -->
<g id="node46" class="node">
<title>load_g4</title>
<polygon fill="#d5e8d4" stroke="black" points="3709,-2690.75 3655,-2690.75 3655,-2537.75 3709,-2537.75 3709,-2690.75"/>
<text xml:space="preserve" text-anchor="start" x="3677.12" y="-2675.25" font-family="SimHei" font-size="10.00">盐</text>
<text xml:space="preserve" text-anchor="start" x="3677.12" y="-2660.75" font-family="SimHei" font-size="10.00">水</text>
<text xml:space="preserve" text-anchor="start" x="3677.12" y="-2646.25" font-family="SimHei" font-size="10.00">排</text>
<text xml:space="preserve" text-anchor="start" x="3677.12" y="-2631.75" font-family="SimHei" font-size="10.00">海</text>
<text xml:space="preserve" text-anchor="start" x="3677.12" y="-2617.25" font-family="SimHei" font-size="10.00">配</text>
<text xml:space="preserve" text-anchor="start" x="3677.12" y="-2602.75" font-family="SimHei" font-size="10.00">电</text>
<text xml:space="preserve" text-anchor="start" x="3677.12" y="-2588.25" font-family="SimHei" font-size="10.00">室</text>
<text xml:space="preserve" text-anchor="start" x="3679.38" y="-2573.75" font-family="SimHei" font-size="10.00">3</text>
<text xml:space="preserve" text-anchor="start" x="3679.38" y="-2559.25" font-family="SimHei" font-size="10.00">1</text>
<text xml:space="preserve" text-anchor="start" x="3679.38" y="-2544.75" font-family="SimHei" font-size="10.00">8</text>
</g>
<!-- pelletizing_35kv&#45;&gt;load_g4 -->
<g id="edge64" class="edge">
<title>pelletizing_35kv&#45;&gt;load_g4</title>
<path fill="none" stroke="black" d="M3545.15,-4056.71C3545.15,-3884.28 3545.15,-2614 3545.15,-2614 3545.15,-2614 3643.12,-2614 3643.12,-2614"/>
<polygon fill="black" stroke="black" points="3643.12,-2617.5 3653.12,-2614 3643.12,-2610.5 3643.12,-2617.5"/>
</g>
<!-- load_g5 -->
<g id="node48" class="node">
<title>load_g5</title>
<polygon fill="#d5e8d4" stroke="black" points="3715,-2240.25 3661,-2240.25 3661,-2087.25 3715,-2087.25 3715,-2240.25"/>
<text xml:space="preserve" text-anchor="start" x="3683.12" y="-2224.75" font-family="SimHei" font-size="10.00">造</text>
<text xml:space="preserve" text-anchor="start" x="3683.12" y="-2210.25" font-family="SimHei" font-size="10.00">粒</text>
<text xml:space="preserve" text-anchor="start" x="3683.12" y="-2195.75" font-family="SimHei" font-size="10.00">车</text>
<text xml:space="preserve" text-anchor="start" x="3683.12" y="-2181.25" font-family="SimHei" font-size="10.00">间</text>
<text xml:space="preserve" text-anchor="start" x="3683.12" y="-2166.75" font-family="SimHei" font-size="10.00">变</text>
<text xml:space="preserve" text-anchor="start" x="3683.12" y="-2152.25" font-family="SimHei" font-size="10.00">电</text>
<text xml:space="preserve" text-anchor="start" x="3683.12" y="-2137.75" font-family="SimHei" font-size="10.00">所</text>
<text xml:space="preserve" text-anchor="start" x="3685.38" y="-2123.25" font-family="SimHei" font-size="10.00">8</text>
<text xml:space="preserve" text-anchor="start" x="3685.38" y="-2108.75" font-family="SimHei" font-size="10.00">7</text>
<text xml:space="preserve" text-anchor="start" x="3685.38" y="-2094.25" font-family="SimHei" font-size="10.00">4</text>
</g>
<!-- pelletizing_35kv&#45;&gt;load_g5 -->
<g id="edge67" class="edge">
<title>pelletizing_35kv&#45;&gt;load_g5</title>
<path fill="none" stroke="black" d="M3519.45,-4056.77C3519.45,-3856.74 3519.45,-2164 3519.45,-2164 3519.45,-2164 3649.03,-2164 3649.03,-2164"/>
<polygon fill="black" stroke="black" points="3649.03,-2167.5 3659.03,-2164 3649.03,-2160.5 3649.03,-2167.5"/>
</g>
<!-- load_m_spacer_1 -->
<!-- load_m1&#45;&gt;load_m_spacer_1 -->
<!-- load_m_spacer_1&#45;&gt;load_m2 -->
<!-- load_m_spacer_2 -->
<!-- load_m2&#45;&gt;load_m_spacer_2 -->
<!-- load_m_spacer_2&#45;&gt;load_m3 -->
<!-- load_m_spacer_3 -->
<!-- load_m3&#45;&gt;load_m_spacer_3 -->
<!-- load_m_spacer_3&#45;&gt;load_m4 -->
<!-- load_m_spacer_4 -->
<!-- load_m4&#45;&gt;load_m_spacer_4 -->
<!-- load_m_spacer_4&#45;&gt;load_m5 -->
<!-- load_m_spacer_5 -->
<!-- load_m5&#45;&gt;load_m_spacer_5 -->
<!-- load_m_spacer_5&#45;&gt;load_m6 -->
<!-- load_m_spacer_6 -->
<!-- load_m6&#45;&gt;load_m_spacer_6 -->
<!-- load_m_spacer_6&#45;&gt;load_m7 -->
<!-- load_m_spacer_7 -->
<!-- load_m7&#45;&gt;load_m_spacer_7 -->
<!-- load_m_spacer_7&#45;&gt;load_m8 -->
<!-- load_m_spacer_8 -->
<!-- load_m8&#45;&gt;load_m_spacer_8 -->
<!-- load_m_spacer_8&#45;&gt;load_m9 -->
<!-- load_m_spacer_9 -->
<!-- load_m9&#45;&gt;load_m_spacer_9 -->
<!-- load_m_spacer_9&#45;&gt;load_m10 -->
<!-- load_p_spacer_1 -->
<!-- load_p1&#45;&gt;load_p_spacer_1 -->
<!-- load_p_spacer_1&#45;&gt;load_p2 -->
<!-- load_p_spacer_2 -->
<!-- load_p2&#45;&gt;load_p_spacer_2 -->
<!-- load_p_spacer_2&#45;&gt;load_p3 -->
<!-- load_p_spacer_3 -->
<!-- load_p3&#45;&gt;load_p_spacer_3 -->
<!-- load_p_spacer_3&#45;&gt;load_p4 -->
<!-- load_p_spacer_4 -->
<!-- load_p4&#45;&gt;load_p_spacer_4 -->
<!-- load_p_spacer_4&#45;&gt;load_p5 -->
<!-- load_p_spacer_5 -->
<!-- load_p5&#45;&gt;load_p_spacer_5 -->
<!-- load_p_spacer_5&#45;&gt;load_p6 -->
<!-- load_p_spacer_6 -->
<!-- load_p6&#45;&gt;load_p_spacer_6 -->
<!-- load_p_spacer_6&#45;&gt;load_p7 -->
<!-- load_p_spacer_7 -->
<!-- load_p7&#45;&gt;load_p_spacer_7 -->
<!-- load_p_spacer_7&#45;&gt;load_p8 -->
<!-- load_g_spacer_1 -->
<!-- load_g1&#45;&gt;load_g_spacer_1 -->
<!-- load_g_spacer_1&#45;&gt;load_g2 -->
<!-- load_g_spacer_2 -->
<!-- load_g2&#45;&gt;load_g_spacer_2 -->
<!-- load_g_spacer_2&#45;&gt;load_g3 -->
<!-- load_g_spacer_3 -->
<!-- load_g3&#45;&gt;load_g_spacer_3 -->
<!-- load_g_spacer_3&#45;&gt;load_g4 -->
<!-- load_g_spacer_4 -->
<!-- load_g4&#45;&gt;load_g_spacer_4 -->
<!-- load_g_spacer_4&#45;&gt;load_g5 -->
</g>
</svg>
