<?xml version="1.0" encoding="UTF-8" standalone="no"?>
<!DOCTYPE svg PUBLIC "-//W3C//DTD SVG 1.1//EN"
 "http://www.w3.org/Graphics/SVG/1.1/DTD/svg11.dtd">
<!-- Generated by graphviz version 13.1.0 (20250701.0955)
 -->
<!-- Title: Power_Grid_Diagram_Full Pages: 1 -->
<svg width="4778pt" height="541pt"
 viewBox="0.00 0.00 4778.00 541.00" xmlns="http://www.w3.org/2000/svg" xmlns:xlink="http://www.w3.org/1999/xlink">
<g id="graph0" class="graph" transform="scale(1 1) rotate(0) translate(4 537)">
<title>Power_Grid_Diagram_Full</title>
<polygon fill="white" stroke="none" points="-4,4 -4,-537 4774,-537 4774,4 -4,4"/>
<g id="clust1" class="cluster">
<title>cluster_mining</title>
<polygon fill="none" stroke="black" points="8,-8 8,-60 2028,-60 2028,-8 8,-8"/>
</g>
<g id="clust2" class="cluster">
<title>cluster_processing</title>
<polygon fill="none" stroke="black" points="2084,-8 2084,-60 3750,-60 3750,-8 2084,-8"/>
</g>
<g id="clust3" class="cluster">
<title>cluster_pelletizing</title>
<polygon fill="none" stroke="black" points="3806,-8 3806,-60 4762,-60 4762,-8 3806,-8"/>
</g>
<!-- source -->
<g id="node1" class="node">
<title>source</title>
<path fill="#f8cecc" stroke="black" d="M2962.75,-533C2962.75,-533 2867.25,-533 2867.25,-533 2861.25,-533 2855.25,-527 2855.25,-521 2855.25,-521 2855.25,-507 2855.25,-507 2855.25,-501 2861.25,-495 2867.25,-495 2867.25,-495 2962.75,-495 2962.75,-495 2968.75,-495 2974.75,-501 2974.75,-507 2974.75,-507 2974.75,-521 2974.75,-521 2974.75,-527 2968.75,-533 2962.75,-533"/>
<text xml:space="preserve" text-anchor="middle" x="2915" y="-515.7" font-family="SimHei" font-size="14.00">220kV 电源</text>
<text xml:space="preserve" text-anchor="middle" x="2915" y="-500.7" font-family="SimHei" font-size="14.00">(Mboudi 变电站)</text>
</g>
<!-- main_substation -->
<g id="node2" class="node">
<title>main_substation</title>
<path fill="#dae8fc" stroke="black" d="M2978.5,-366C2978.5,-366 2851.5,-366 2851.5,-366 2845.5,-366 2839.5,-360 2839.5,-354 2839.5,-354 2839.5,-340 2839.5,-340 2839.5,-334 2845.5,-328 2851.5,-328 2851.5,-328 2978.5,-328 2978.5,-328 2984.5,-328 2990.5,-334 2990.5,-340 2990.5,-340 2990.5,-354 2990.5,-354 2990.5,-360 2984.5,-366 2978.5,-366"/>
<text xml:space="preserve" text-anchor="middle" x="2915" y="-348.7" font-family="SimHei" font-size="14.00">全厂总降压变电站</text>
<text xml:space="preserve" text-anchor="middle" x="2915" y="-333.7" font-family="SimHei" font-size="14.00">(220/35kV, 2x150MVA)</text>
</g>
<!-- source&#45;&gt;main_substation -->
<g id="edge1" class="edge">
<title>source&#45;&gt;main_substation</title>
<path fill="none" stroke="black" d="M2915,-494.52C2915,-494.52 2915,-377.87 2915,-377.87"/>
<polygon fill="black" stroke="black" points="2918.5,-377.87 2915,-367.87 2911.5,-377.87 2918.5,-377.87"/>
<text xml:space="preserve" text-anchor="middle" x="2950.25" y="-431.5" font-family="SimHei" font-size="10.00">220kV 架空线路</text>
<text xml:space="preserve" text-anchor="middle" x="2950.25" y="-421" font-family="SimHei" font-size="10.00">28.5km</text>
</g>
<!-- mining_35kv -->
<g id="node3" class="node">
<title>mining_35kv</title>
<path fill="#dae8fc" stroke="black" d="M1085.12,-198C1085.12,-198 994.88,-198 994.88,-198 988.88,-198 982.88,-192 982.88,-186 982.88,-186 982.88,-174 982.88,-174 982.88,-168 988.88,-162 994.88,-162 994.88,-162 1085.12,-162 1085.12,-162 1091.12,-162 1097.12,-168 1097.12,-174 1097.12,-174 1097.12,-186 1097.12,-186 1097.12,-192 1091.12,-198 1085.12,-198"/>
<text xml:space="preserve" text-anchor="middle" x="1040" y="-174.2" font-family="SimHei" font-size="14.00">采矿35kV变电站</text>
</g>
<!-- main_substation&#45;&gt;mining_35kv -->
<g id="edge2" class="edge">
<title>main_substation&#45;&gt;mining_35kv</title>
<path fill="none" stroke="black" d="M2839.18,-347C2488.39,-347 1040,-347 1040,-347 1040,-347 1040,-209.7 1040,-209.7"/>
<polygon fill="black" stroke="black" points="1043.5,-209.7 1040,-199.7 1036.5,-209.7 1043.5,-209.7"/>
<text xml:space="preserve" text-anchor="middle" x="2000.88" y="-259.25" font-family="SimHei" font-size="10.00">35kV 馈线</text>
</g>
<!-- processing_35kv -->
<g id="node4" class="node">
<title>processing_35kv</title>
<path fill="#dae8fc" stroke="black" d="M2991.62,-198C2991.62,-198 2838.38,-198 2838.38,-198 2832.38,-198 2826.38,-192 2826.38,-186 2826.38,-186 2826.38,-174 2826.38,-174 2826.38,-168 2832.38,-162 2838.38,-162 2838.38,-162 2991.62,-162 2991.62,-162 2997.62,-162 3003.62,-168 3003.62,-174 3003.62,-174 3003.62,-186 3003.62,-186 3003.62,-192 2997.62,-198 2991.62,-198"/>
<text xml:space="preserve" text-anchor="middle" x="2915" y="-174.2" font-family="SimHei" font-size="14.00">加工厂35kV变电站 (选矿)</text>
</g>
<!-- main_substation&#45;&gt;processing_35kv -->
<g id="edge3" class="edge">
<title>main_substation&#45;&gt;processing_35kv</title>
<path fill="none" stroke="black" d="M2915,-327.52C2915,-327.52 2915,-209.85 2915,-209.85"/>
<polygon fill="black" stroke="black" points="2918.5,-209.85 2915,-199.85 2911.5,-209.85 2918.5,-209.85"/>
<text xml:space="preserve" text-anchor="middle" x="2937.88" y="-259.25" font-family="SimHei" font-size="10.00">35kV 馈线</text>
</g>
<!-- pelletizing_35kv -->
<g id="node5" class="node">
<title>pelletizing_35kv</title>
<path fill="#dae8fc" stroke="black" d="M4239.25,-199C4239.25,-199 4134.75,-199 4134.75,-199 4128.75,-199 4122.75,-193 4122.75,-187 4122.75,-187 4122.75,-173 4122.75,-173 4122.75,-167 4128.75,-161 4134.75,-161 4134.75,-161 4239.25,-161 4239.25,-161 4245.25,-161 4251.25,-167 4251.25,-173 4251.25,-173 4251.25,-187 4251.25,-187 4251.25,-193 4245.25,-199 4239.25,-199"/>
<text xml:space="preserve" text-anchor="middle" x="4187" y="-181.7" font-family="SimHei" font-size="14.00">造粒厂35kV变电站</text>
<text xml:space="preserve" text-anchor="middle" x="4187" y="-166.7" font-family="SimHei" font-size="14.00">(2x31.5MVA)</text>
</g>
<!-- main_substation&#45;&gt;pelletizing_35kv -->
<g id="edge4" class="edge">
<title>main_substation&#45;&gt;pelletizing_35kv</title>
<path fill="none" stroke="black" d="M2990.76,-347C3264.6,-347 4187,-347 4187,-347 4187,-347 4187,-211 4187,-211"/>
<polygon fill="black" stroke="black" points="4190.5,-211 4187,-201 4183.5,-211 4190.5,-211"/>
<text xml:space="preserve" text-anchor="middle" x="3657.62" y="-264.5" font-family="SimHei" font-size="10.00">35kV 架空线路</text>
<text xml:space="preserve" text-anchor="middle" x="3657.62" y="-254" font-family="SimHei" font-size="10.00">13km</text>
</g>
<!-- load_m1 -->
<g id="node6" class="node">
<title>load_m1</title>
<polygon fill="#d5e8d4" stroke="black" points="131.88,-52 16.12,-52 16.12,-16 131.88,-16 131.88,-52"/>
<text xml:space="preserve" text-anchor="middle" x="74" y="-28.2" font-family="SimHei" font-size="14.00">井下中央变电所</text>
</g>
<!-- mining_35kv&#45;&gt;load_m1 -->
<g id="edge5" class="edge">
<title>mining_35kv&#45;&gt;load_m1</title>
<path fill="none" stroke="black" d="M982.47,-192C774.5,-192 74,-192 74,-192 74,-192 74,-63.95 74,-63.95"/>
<polygon fill="black" stroke="black" points="77.5,-63.95 74,-53.95 70.5,-63.95 77.5,-63.95"/>
</g>
<!-- load_m2 -->
<g id="node7" class="node">
<title>load_m2</title>
<polygon fill="#d5e8d4" stroke="black" points="340,-52 204,-52 204,-16 340,-16 340,-52"/>
<text xml:space="preserve" text-anchor="middle" x="272" y="-28.2" font-family="SimHei" font-size="14.00">井下301盘区变电所</text>
</g>
<!-- mining_35kv&#45;&gt;load_m2 -->
<g id="edge6" class="edge">
<title>mining_35kv&#45;&gt;load_m2</title>
<path fill="none" stroke="black" d="M982.59,-186C804.29,-186 272,-186 272,-186 272,-186 272,-63.85 272,-63.85"/>
<polygon fill="black" stroke="black" points="275.5,-63.85 272,-53.85 268.5,-63.85 275.5,-63.85"/>
</g>
<!-- load_m3 -->
<g id="node8" class="node">
<title>load_m3</title>
<polygon fill="#d5e8d4" stroke="black" points="548,-52 412,-52 412,-16 548,-16 548,-52"/>
<text xml:space="preserve" text-anchor="middle" x="480" y="-28.2" font-family="SimHei" font-size="14.00">井下302盘区变电所</text>
</g>
<!-- mining_35kv&#45;&gt;load_m3 -->
<g id="edge7" class="edge">
<title>mining_35kv&#45;&gt;load_m3</title>
<path fill="none" stroke="black" d="M982.44,-180C839.54,-180 480,-180 480,-180 480,-180 480,-64 480,-64"/>
<polygon fill="black" stroke="black" points="483.5,-64 480,-54 476.5,-64 483.5,-64"/>
</g>
<!-- load_m4 -->
<g id="node9" class="node">
<title>load_m4</title>
<polygon fill="#d5e8d4" stroke="black" points="721.75,-52 620.25,-52 620.25,-16 721.75,-16 721.75,-52"/>
<text xml:space="preserve" text-anchor="middle" x="671" y="-28.2" font-family="SimHei" font-size="14.00">东风井配电室</text>
</g>
<!-- mining_35kv&#45;&gt;load_m4 -->
<g id="edge8" class="edge">
<title>mining_35kv&#45;&gt;load_m4</title>
<path fill="none" stroke="black" d="M982.75,-174C879.1,-174 671,-174 671,-174 671,-174 671,-63.82 671,-63.82"/>
<polygon fill="black" stroke="black" points="674.5,-63.82 671,-53.82 667.5,-63.82 674.5,-63.82"/>
</g>
<!-- load_m5 -->
<g id="node10" class="node">
<title>load_m5</title>
<polygon fill="#d5e8d4" stroke="black" points="895.75,-52 794.25,-52 794.25,-16 895.75,-16 895.75,-52"/>
<text xml:space="preserve" text-anchor="middle" x="845" y="-28.2" font-family="SimHei" font-size="14.00">西风井配电室</text>
</g>
<!-- mining_35kv&#45;&gt;load_m5 -->
<g id="edge9" class="edge">
<title>mining_35kv&#45;&gt;load_m5</title>
<path fill="none" stroke="black" d="M982.55,-168C925.03,-168 845,-168 845,-168 845,-168 845,-63.86 845,-63.86"/>
<polygon fill="black" stroke="black" points="848.5,-63.86 845,-53.86 841.5,-63.86 848.5,-63.86"/>
</g>
<!-- load_m6 -->
<g id="node11" class="node">
<title>load_m6</title>
<polygon fill="#d5e8d4" stroke="black" points="1111.75,-52 968.25,-52 968.25,-16 1111.75,-16 1111.75,-52"/>
<text xml:space="preserve" text-anchor="middle" x="1040" y="-28.2" font-family="SimHei" font-size="14.00">1#主井提升机配电室</text>
</g>
<!-- mining_35kv&#45;&gt;load_m6 -->
<g id="edge10" class="edge">
<title>mining_35kv&#45;&gt;load_m6</title>
<path fill="none" stroke="black" d="M1040,-161.51C1040,-161.51 1040,-63.85 1040,-63.85"/>
<polygon fill="black" stroke="black" points="1043.5,-63.85 1040,-53.85 1036.5,-63.85 1043.5,-63.85"/>
</g>
<!-- load_m7 -->
<g id="node12" class="node">
<title>load_m7</title>
<polygon fill="#d5e8d4" stroke="black" points="1327.75,-52 1184.25,-52 1184.25,-16 1327.75,-16 1327.75,-52"/>
<text xml:space="preserve" text-anchor="middle" x="1256" y="-28.2" font-family="SimHei" font-size="14.00">2#主井提升机配电室</text>
</g>
<!-- mining_35kv&#45;&gt;load_m7 -->
<g id="edge11" class="edge">
<title>mining_35kv&#45;&gt;load_m7</title>
<path fill="none" stroke="black" d="M1097.6,-167C1161.59,-167 1256,-167 1256,-167 1256,-167 1256,-64.01 1256,-64.01"/>
<polygon fill="black" stroke="black" points="1259.5,-64.01 1256,-54.01 1252.5,-64.01 1259.5,-64.01"/>
</g>
<!-- load_m8 -->
<g id="node13" class="node">
<title>load_m8</title>
<polygon fill="#d5e8d4" stroke="black" points="1544.12,-52 1399.88,-52 1399.88,-16 1544.12,-16 1544.12,-52"/>
<text xml:space="preserve" text-anchor="middle" x="1472" y="-28.2" font-family="SimHei" font-size="14.00">副井提升机房配电室</text>
</g>
<!-- mining_35kv&#45;&gt;load_m8 -->
<g id="edge12" class="edge">
<title>mining_35kv&#45;&gt;load_m8</title>
<path fill="none" stroke="black" d="M1097.37,-176C1214.88,-176 1472,-176 1472,-176 1472,-176 1472,-63.79 1472,-63.79"/>
<polygon fill="black" stroke="black" points="1475.5,-63.79 1472,-53.79 1468.5,-63.79 1475.5,-63.79"/>
</g>
<!-- load_m9 -->
<g id="node14" class="node">
<title>load_m9</title>
<polygon fill="#d5e8d4" stroke="black" points="1789.38,-52 1616.62,-52 1616.62,-16 1789.38,-16 1789.38,-52"/>
<text xml:space="preserve" text-anchor="middle" x="1703" y="-28.2" font-family="SimHei" font-size="14.00">副井交通罐提升机配电室</text>
</g>
<!-- mining_35kv&#45;&gt;load_m9 -->
<g id="edge13" class="edge">
<title>mining_35kv&#45;&gt;load_m9</title>
<path fill="none" stroke="black" d="M1097.39,-185C1258.45,-185 1703,-185 1703,-185 1703,-185 1703,-63.73 1703,-63.73"/>
<polygon fill="black" stroke="black" points="1706.5,-63.73 1703,-53.73 1699.5,-63.73 1706.5,-63.73"/>
</g>
<!-- load_m10 -->
<g id="node15" class="node">
<title>load_m10</title>
<polygon fill="#d5e8d4" stroke="black" points="2020.25,-52 1861.75,-52 1861.75,-16 2020.25,-16 2020.25,-52"/>
<text xml:space="preserve" text-anchor="middle" x="1941" y="-28.2" font-family="SimHei" font-size="14.00">潜水泵泵房地面配电室</text>
</g>
<!-- mining_35kv&#45;&gt;load_m10 -->
<g id="edge14" class="edge">
<title>mining_35kv&#45;&gt;load_m10</title>
<path fill="none" stroke="black" d="M1097.39,-194C1295.85,-194 1941,-194 1941,-194 1941,-194 1941,-63.87 1941,-63.87"/>
<polygon fill="black" stroke="black" points="1944.5,-63.87 1941,-53.87 1937.5,-63.87 1944.5,-63.87"/>
</g>
<!-- load_p1 -->
<g id="node16" class="node">
<title>load_p1</title>
<polygon fill="#d5e8d4" stroke="black" points="2228,-52 2092,-52 2092,-16 2228,-16 2228,-52"/>
<text xml:space="preserve" text-anchor="middle" x="2160" y="-28.2" font-family="SimHei" font-size="14.00">原矿储仓配电室641</text>
</g>
<!-- processing_35kv&#45;&gt;load_p1 -->
<g id="edge15" class="edge">
<title>processing_35kv&#45;&gt;load_p1</title>
<path fill="none" stroke="black" d="M2826.17,-189C2626.59,-189 2160,-189 2160,-189 2160,-189 2160,-63.9 2160,-63.9"/>
<polygon fill="black" stroke="black" points="2163.5,-63.9 2160,-53.9 2156.5,-63.9 2163.5,-63.9"/>
</g>
<!-- load_p2 -->
<g id="node17" class="node">
<title>load_p2</title>
<polygon fill="#d5e8d4" stroke="black" points="2407.75,-52 2300.25,-52 2300.25,-16 2407.75,-16 2407.75,-52"/>
<text xml:space="preserve" text-anchor="middle" x="2354" y="-28.2" font-family="SimHei" font-size="14.00">筛分配电室642</text>
</g>
<!-- processing_35kv&#45;&gt;load_p2 -->
<g id="edge16" class="edge">
<title>processing_35kv&#45;&gt;load_p2</title>
<path fill="none" stroke="black" d="M2826.11,-180C2667.92,-180 2354,-180 2354,-180 2354,-180 2354,-64 2354,-64"/>
<polygon fill="black" stroke="black" points="2357.5,-64 2354,-54 2350.5,-64 2357.5,-64"/>
</g>
<!-- load_p3 -->
<g id="node18" class="node">
<title>load_p3</title>
<polygon fill="#d5e8d4" stroke="black" points="2630.12,-52 2479.88,-52 2479.88,-16 2630.12,-16 2630.12,-52"/>
<text xml:space="preserve" text-anchor="middle" x="2555" y="-28.2" font-family="SimHei" font-size="14.00">分解结晶变配电室643</text>
</g>
<!-- processing_35kv&#45;&gt;load_p3 -->
<g id="edge17" class="edge">
<title>processing_35kv&#45;&gt;load_p3</title>
<path fill="none" stroke="black" d="M2826.01,-171C2719.4,-171 2555,-171 2555,-171 2555,-171 2555,-63.99 2555,-63.99"/>
<polygon fill="black" stroke="black" points="2558.5,-63.99 2555,-53.99 2551.5,-63.99 2558.5,-63.99"/>
</g>
<!-- load_p4 -->
<g id="node19" class="node">
<title>load_p4</title>
<polygon fill="#d5e8d4" stroke="black" points="2881.38,-52 2702.62,-52 2702.62,-16 2881.38,-16 2881.38,-52"/>
<text xml:space="preserve" text-anchor="middle" x="2792" y="-28.2" font-family="SimHei" font-size="14.00">选过滤车间浮选配电室644</text>
</g>
<!-- processing_35kv&#45;&gt;load_p4 -->
<g id="edge18" class="edge">
<title>processing_35kv&#45;&gt;load_p4</title>
<path fill="none" stroke="black" d="M2853.88,-161.51C2853.88,-161.51 2853.88,-63.85 2853.88,-63.85"/>
<polygon fill="black" stroke="black" points="2857.38,-63.85 2853.88,-53.85 2850.38,-63.85 2857.38,-63.85"/>
</g>
<!-- load_p5 -->
<g id="node20" class="node">
<title>load_p5</title>
<polygon fill="#d5e8d4" stroke="black" points="3132.38,-52 2953.62,-52 2953.62,-16 3132.38,-16 3132.38,-52"/>
<text xml:space="preserve" text-anchor="middle" x="3043" y="-28.2" font-family="SimHei" font-size="14.00">选过滤车间过滤配电室645</text>
</g>
<!-- processing_35kv&#45;&gt;load_p5 -->
<g id="edge19" class="edge">
<title>processing_35kv&#45;&gt;load_p5</title>
<path fill="none" stroke="black" d="M2978.62,-161.51C2978.62,-161.51 2978.62,-63.85 2978.62,-63.85"/>
<polygon fill="black" stroke="black" points="2982.13,-63.85 2978.63,-53.85 2975.13,-63.85 2982.13,-63.85"/>
</g>
<!-- load_p6 -->
<g id="node21" class="node">
<title>load_p6</title>
<polygon fill="#d5e8d4" stroke="black" points="3325.88,-52 3204.12,-52 3204.12,-16 3325.88,-16 3325.88,-52"/>
<text xml:space="preserve" text-anchor="middle" x="3265" y="-28.2" font-family="SimHei" font-size="14.00">生活区变电所320</text>
</g>
<!-- processing_35kv&#45;&gt;load_p6 -->
<g id="edge20" class="edge">
<title>processing_35kv&#45;&gt;load_p6</title>
<path fill="none" stroke="black" d="M3003.77,-176C3107.46,-176 3265,-176 3265,-176 3265,-176 3265,-63.79 3265,-63.79"/>
<polygon fill="black" stroke="black" points="3268.5,-63.79 3265,-53.79 3261.5,-63.79 3268.5,-63.79"/>
</g>
<!-- load_p7 -->
<g id="node22" class="node">
<title>load_p7</title>
<polygon fill="#d5e8d4" stroke="black" points="3534,-52 3398,-52 3398,-16 3534,-16 3534,-52"/>
<text xml:space="preserve" text-anchor="middle" x="3466" y="-28.2" font-family="SimHei" font-size="14.00">熔炼装置变电所310</text>
</g>
<!-- processing_35kv&#45;&gt;load_p7 -->
<g id="edge21" class="edge">
<title>processing_35kv&#45;&gt;load_p7</title>
<path fill="none" stroke="black" d="M3003.83,-184C3159.68,-184 3466,-184 3466,-184 3466,-184 3466,-63.91 3466,-63.91"/>
<polygon fill="black" stroke="black" points="3469.5,-63.91 3466,-53.91 3462.5,-63.91 3469.5,-63.91"/>
</g>
<!-- load_p8 -->
<g id="node23" class="node">
<title>load_p8</title>
<polygon fill="#d5e8d4" stroke="black" points="3742,-52 3606,-52 3606,-16 3742,-16 3742,-52"/>
<text xml:space="preserve" text-anchor="middle" x="3674" y="-28.2" font-family="SimHei" font-size="14.00">提溴装置变电所311</text>
</g>
<!-- processing_35kv&#45;&gt;load_p8 -->
<g id="edge22" class="edge">
<title>processing_35kv&#45;&gt;load_p8</title>
<path fill="none" stroke="black" d="M3003.93,-191C3204.35,-191 3674,-191 3674,-191 3674,-191 3674,-63.83 3674,-63.83"/>
<polygon fill="black" stroke="black" points="3677.5,-63.83 3674,-53.83 3670.5,-63.83 3677.5,-63.83"/>
</g>
<!-- load_g1 -->
<g id="node24" class="node">
<title>load_g1</title>
<polygon fill="#d5e8d4" stroke="black" points="3950,-52 3814,-52 3814,-16 3950,-16 3950,-52"/>
<text xml:space="preserve" text-anchor="middle" x="3882" y="-28.2" font-family="SimHei" font-size="14.00">精矿脱卤变电所315</text>
</g>
<!-- pelletizing_35kv&#45;&gt;load_g1 -->
<g id="edge23" class="edge">
<title>pelletizing_35kv&#45;&gt;load_g1</title>
<path fill="none" stroke="black" d="M4122.32,-169C4032.79,-169 3882,-169 3882,-169 3882,-169 3882,-64 3882,-64"/>
<polygon fill="black" stroke="black" points="3885.5,-64 3882,-54 3878.5,-64 3885.5,-64"/>
</g>
<!-- load_g2 -->
<g id="node25" class="node">
<title>load_g2</title>
<polygon fill="#d5e8d4" stroke="black" points="4158,-52 4022,-52 4022,-16 4158,-16 4158,-52"/>
<text xml:space="preserve" text-anchor="middle" x="4090" y="-28.2" font-family="SimHei" font-size="14.00">干燥储运变电所316</text>
</g>
<!-- pelletizing_35kv&#45;&gt;load_g2 -->
<g id="edge24" class="edge">
<title>pelletizing_35kv&#45;&gt;load_g2</title>
<path fill="none" stroke="black" d="M4140.38,-160.61C4140.38,-160.61 4140.38,-63.6 4140.38,-63.6"/>
<polygon fill="black" stroke="black" points="4143.88,-63.6 4140.38,-53.6 4136.88,-63.6 4143.88,-63.6"/>
</g>
<!-- load_g3 -->
<g id="node26" class="node">
<title>load_g3</title>
<polygon fill="#d5e8d4" stroke="black" points="4337.75,-52 4230.25,-52 4230.25,-16 4337.75,-16 4337.75,-52"/>
<text xml:space="preserve" text-anchor="middle" x="4284" y="-28.2" font-family="SimHei" font-size="14.00">陆域变电所317</text>
</g>
<!-- pelletizing_35kv&#45;&gt;load_g3 -->
<g id="edge25" class="edge">
<title>pelletizing_35kv&#45;&gt;load_g3</title>
<path fill="none" stroke="black" d="M4240.75,-160.61C4240.75,-160.61 4240.75,-63.6 4240.75,-63.6"/>
<polygon fill="black" stroke="black" points="4244.25,-63.6 4240.75,-53.6 4237.25,-63.6 4244.25,-63.6"/>
</g>
<!-- load_g4 -->
<g id="node27" class="node">
<title>load_g4</title>
<polygon fill="#d5e8d4" stroke="black" points="4546,-52 4410,-52 4410,-16 4546,-16 4546,-52"/>
<text xml:space="preserve" text-anchor="middle" x="4478" y="-28.2" font-family="SimHei" font-size="14.00">盐水排海配电室318</text>
</g>
<!-- pelletizing_35kv&#45;&gt;load_g4 -->
<g id="edge26" class="edge">
<title>pelletizing_35kv&#45;&gt;load_g4</title>
<path fill="none" stroke="black" d="M4251.58,-174C4337.31,-174 4478,-174 4478,-174 4478,-174 4478,-63.82 4478,-63.82"/>
<polygon fill="black" stroke="black" points="4481.5,-63.82 4478,-53.82 4474.5,-63.82 4481.5,-63.82"/>
</g>
<!-- load_g5 -->
<g id="node28" class="node">
<title>load_g5</title>
<polygon fill="#d5e8d4" stroke="black" points="4754,-52 4618,-52 4618,-16 4754,-16 4754,-52"/>
<text xml:space="preserve" text-anchor="middle" x="4686" y="-28.2" font-family="SimHei" font-size="14.00">造粒车间变电所874</text>
</g>
<!-- pelletizing_35kv&#45;&gt;load_g5 -->
<g id="edge27" class="edge">
<title>pelletizing_35kv&#45;&gt;load_g5</title>
<path fill="none" stroke="black" d="M4251.72,-186C4386.74,-186 4686,-186 4686,-186 4686,-186 4686,-63.85 4686,-63.85"/>
<polygon fill="black" stroke="black" points="4689.5,-63.85 4686,-53.85 4682.5,-63.85 4689.5,-63.85"/>
</g>
</g>
</svg>
