<?xml version="1.0" encoding="UTF-8" standalone="no"?>
<!DOCTYPE svg PUBLIC "-//W3C//DTD SVG 1.1//EN"
 "http://www.w3.org/Graphics/SVG/1.1/DTD/svg11.dtd">
<!-- Generated by graphviz version 13.1.0 (20250701.0955)
 -->
<!-- Title: Power_Grid_Diagram_Final_Vertical Pages: 1 -->
<svg width="2558pt" height="650pt"
 viewBox="0.00 0.00 2558.00 650.00" xmlns="http://www.w3.org/2000/svg" xmlns:xlink="http://www.w3.org/1999/xlink">
<g id="graph0" class="graph" transform="scale(1 1) rotate(0) translate(4 645.5)">
<title>Power_Grid_Diagram_Final_Vertical</title>
<polygon fill="white" stroke="none" points="-4,4 -4,-645.5 2554,-645.5 2554,4 -4,4"/>
<g id="clust1" class="cluster">
<title>cluster_mining</title>
<polygon fill="none" stroke="black" points="8,-18.5 8,-158 1086,-158 1086,-18.5 8,-18.5"/>
</g>
<g id="clust2" class="cluster">
<title>cluster_processing</title>
<polygon fill="none" stroke="black" points="1128,-8 1128,-168.5 1982,-168.5 1982,-8 1128,-8"/>
</g>
<g id="clust3" class="cluster">
<title>cluster_pelletizing</title>
<polygon fill="none" stroke="black" points="2024,-23.75 2024,-152.75 2542,-152.75 2542,-23.75 2024,-23.75"/>
</g>
<!-- source -->
<g id="node1" class="node">
<title>source</title>
<path fill="#f8cecc" stroke="black" d="M1602.75,-641.5C1602.75,-641.5 1507.25,-641.5 1507.25,-641.5 1501.25,-641.5 1495.25,-635.5 1495.25,-629.5 1495.25,-629.5 1495.25,-615.5 1495.25,-615.5 1495.25,-609.5 1501.25,-603.5 1507.25,-603.5 1507.25,-603.5 1602.75,-603.5 1602.75,-603.5 1608.75,-603.5 1614.75,-609.5 1614.75,-615.5 1614.75,-615.5 1614.75,-629.5 1614.75,-629.5 1614.75,-635.5 1608.75,-641.5 1602.75,-641.5"/>
<text xml:space="preserve" text-anchor="middle" x="1555" y="-624.2" font-family="SimHei" font-size="14.00">220kV 电源</text>
<text xml:space="preserve" text-anchor="middle" x="1555" y="-609.2" font-family="SimHei" font-size="14.00">(Mboudi 变电站)</text>
</g>
<!-- main_substation -->
<g id="node2" class="node">
<title>main_substation</title>
<path fill="#dae8fc" stroke="black" d="M1618.5,-474.5C1618.5,-474.5 1491.5,-474.5 1491.5,-474.5 1485.5,-474.5 1479.5,-468.5 1479.5,-462.5 1479.5,-462.5 1479.5,-448.5 1479.5,-448.5 1479.5,-442.5 1485.5,-436.5 1491.5,-436.5 1491.5,-436.5 1618.5,-436.5 1618.5,-436.5 1624.5,-436.5 1630.5,-442.5 1630.5,-448.5 1630.5,-448.5 1630.5,-462.5 1630.5,-462.5 1630.5,-468.5 1624.5,-474.5 1618.5,-474.5"/>
<text xml:space="preserve" text-anchor="middle" x="1555" y="-457.2" font-family="SimHei" font-size="14.00">全厂总降压变电站</text>
<text xml:space="preserve" text-anchor="middle" x="1555" y="-442.2" font-family="SimHei" font-size="14.00">(220/35kV, 2x150MVA)</text>
</g>
<!-- source&#45;&gt;main_substation -->
<g id="edge1" class="edge">
<title>source&#45;&gt;main_substation</title>
<path fill="none" stroke="black" d="M1555,-603.02C1555,-603.02 1555,-486.37 1555,-486.37"/>
<polygon fill="black" stroke="black" points="1558.5,-486.37 1555,-476.37 1551.5,-486.37 1558.5,-486.37"/>
<text xml:space="preserve" text-anchor="middle" x="1590.25" y="-540" font-family="SimHei" font-size="10.00">220kV 架空线路</text>
<text xml:space="preserve" text-anchor="middle" x="1590.25" y="-529.5" font-family="SimHei" font-size="10.00">28.5km</text>
</g>
<!-- mining_35kv -->
<g id="node3" class="node">
<title>mining_35kv</title>
<path fill="#dae8fc" stroke="black" d="M648.12,-306.5C648.12,-306.5 557.88,-306.5 557.88,-306.5 551.88,-306.5 545.88,-300.5 545.88,-294.5 545.88,-294.5 545.88,-282.5 545.88,-282.5 545.88,-276.5 551.88,-270.5 557.88,-270.5 557.88,-270.5 648.12,-270.5 648.12,-270.5 654.12,-270.5 660.12,-276.5 660.12,-282.5 660.12,-282.5 660.12,-294.5 660.12,-294.5 660.12,-300.5 654.12,-306.5 648.12,-306.5"/>
<text xml:space="preserve" text-anchor="middle" x="603" y="-282.7" font-family="SimHei" font-size="14.00">采矿35kV变电站</text>
</g>
<!-- main_substation&#45;&gt;mining_35kv -->
<g id="edge2" class="edge">
<title>main_substation&#45;&gt;mining_35kv</title>
<path fill="none" stroke="black" d="M1479.1,-456C1253.57,-456 603,-456 603,-456 603,-456 603,-318.26 603,-318.26"/>
<polygon fill="black" stroke="black" points="606.5,-318.26 603,-308.26 599.5,-318.26 606.5,-318.26"/>
<text xml:space="preserve" text-anchor="middle" x="1075.88" y="-367.75" font-family="SimHei" font-size="10.00">35kV 馈线</text>
</g>
<!-- processing_35kv -->
<g id="node4" class="node">
<title>processing_35kv</title>
<path fill="#dae8fc" stroke="black" d="M1631.62,-306.5C1631.62,-306.5 1478.38,-306.5 1478.38,-306.5 1472.38,-306.5 1466.38,-300.5 1466.38,-294.5 1466.38,-294.5 1466.38,-282.5 1466.38,-282.5 1466.38,-276.5 1472.38,-270.5 1478.38,-270.5 1478.38,-270.5 1631.62,-270.5 1631.62,-270.5 1637.62,-270.5 1643.62,-276.5 1643.62,-282.5 1643.62,-282.5 1643.62,-294.5 1643.62,-294.5 1643.62,-300.5 1637.62,-306.5 1631.62,-306.5"/>
<text xml:space="preserve" text-anchor="middle" x="1555" y="-282.7" font-family="SimHei" font-size="14.00">加工厂35kV变电站 (选矿)</text>
</g>
<!-- main_substation&#45;&gt;processing_35kv -->
<g id="edge3" class="edge">
<title>main_substation&#45;&gt;processing_35kv</title>
<path fill="none" stroke="black" d="M1555,-436.02C1555,-436.02 1555,-318.35 1555,-318.35"/>
<polygon fill="black" stroke="black" points="1558.5,-318.35 1555,-308.35 1551.5,-318.35 1558.5,-318.35"/>
<text xml:space="preserve" text-anchor="middle" x="1577.88" y="-367.75" font-family="SimHei" font-size="10.00">35kV 馈线</text>
</g>
<!-- pelletizing_35kv -->
<g id="node5" class="node">
<title>pelletizing_35kv</title>
<path fill="#dae8fc" stroke="black" d="M2279.25,-307.5C2279.25,-307.5 2174.75,-307.5 2174.75,-307.5 2168.75,-307.5 2162.75,-301.5 2162.75,-295.5 2162.75,-295.5 2162.75,-281.5 2162.75,-281.5 2162.75,-275.5 2168.75,-269.5 2174.75,-269.5 2174.75,-269.5 2279.25,-269.5 2279.25,-269.5 2285.25,-269.5 2291.25,-275.5 2291.25,-281.5 2291.25,-281.5 2291.25,-295.5 2291.25,-295.5 2291.25,-301.5 2285.25,-307.5 2279.25,-307.5"/>
<text xml:space="preserve" text-anchor="middle" x="2227" y="-290.2" font-family="SimHei" font-size="14.00">造粒厂35kV变电站</text>
<text xml:space="preserve" text-anchor="middle" x="2227" y="-275.2" font-family="SimHei" font-size="14.00">(2x31.5MVA)</text>
</g>
<!-- main_substation&#45;&gt;pelletizing_35kv -->
<g id="edge4" class="edge">
<title>main_substation&#45;&gt;pelletizing_35kv</title>
<path fill="none" stroke="black" d="M1630.78,-456C1806.53,-456 2227,-456 2227,-456 2227,-456 2227,-319.23 2227,-319.23"/>
<polygon fill="black" stroke="black" points="2230.5,-319.23 2227,-309.23 2223.5,-319.23 2230.5,-319.23"/>
<text xml:space="preserve" text-anchor="middle" x="1977.62" y="-373" font-family="SimHei" font-size="10.00">35kV 架空线路</text>
<text xml:space="preserve" text-anchor="middle" x="1977.62" y="-362.5" font-family="SimHei" font-size="10.00">13km</text>
</g>
<!-- load_m1 -->
<g id="node6" class="node">
<title>load_m1</title>
<polygon fill="#d5e8d4" stroke="black" points="70,-129 16,-129 16,-47.5 70,-47.5 70,-129"/>
<text xml:space="preserve" text-anchor="middle" x="43" y="-115.5" font-family="SimHei" font-size="10.00">井</text>
<text xml:space="preserve" text-anchor="middle" x="43" y="-105" font-family="SimHei" font-size="10.00">下</text>
<text xml:space="preserve" text-anchor="middle" x="43" y="-94.5" font-family="SimHei" font-size="10.00">中</text>
<text xml:space="preserve" text-anchor="middle" x="43" y="-84" font-family="SimHei" font-size="10.00">央</text>
<text xml:space="preserve" text-anchor="middle" x="43" y="-73.5" font-family="SimHei" font-size="10.00">变</text>
<text xml:space="preserve" text-anchor="middle" x="43" y="-63" font-family="SimHei" font-size="10.00">电</text>
<text xml:space="preserve" text-anchor="middle" x="43" y="-52.5" font-family="SimHei" font-size="10.00">所</text>
</g>
<!-- mining_35kv&#45;&gt;load_m1 -->
<g id="edge5" class="edge">
<title>mining_35kv&#45;&gt;load_m1</title>
<path fill="none" stroke="black" d="M545.44,-299C402.54,-299 43,-299 43,-299 43,-299 43,-140.9 43,-140.9"/>
<polygon fill="black" stroke="black" points="46.5,-140.9 43,-130.9 39.5,-140.9 46.5,-140.9"/>
</g>
<!-- load_m2 -->
<g id="node7" class="node">
<title>load_m2</title>
<polygon fill="#d5e8d4" stroke="black" points="182,-144.75 128,-144.75 128,-31.75 182,-31.75 182,-144.75"/>
<text xml:space="preserve" text-anchor="middle" x="155" y="-131.25" font-family="SimHei" font-size="10.00">井</text>
<text xml:space="preserve" text-anchor="middle" x="155" y="-120.75" font-family="SimHei" font-size="10.00">下</text>
<text xml:space="preserve" text-anchor="middle" x="155" y="-110.25" font-family="SimHei" font-size="10.00">3</text>
<text xml:space="preserve" text-anchor="middle" x="155" y="-99.75" font-family="SimHei" font-size="10.00">0</text>
<text xml:space="preserve" text-anchor="middle" x="155" y="-89.25" font-family="SimHei" font-size="10.00">1</text>
<text xml:space="preserve" text-anchor="middle" x="155" y="-78.75" font-family="SimHei" font-size="10.00">盘</text>
<text xml:space="preserve" text-anchor="middle" x="155" y="-68.25" font-family="SimHei" font-size="10.00">区</text>
<text xml:space="preserve" text-anchor="middle" x="155" y="-57.75" font-family="SimHei" font-size="10.00">变</text>
<text xml:space="preserve" text-anchor="middle" x="155" y="-47.25" font-family="SimHei" font-size="10.00">电</text>
<text xml:space="preserve" text-anchor="middle" x="155" y="-36.75" font-family="SimHei" font-size="10.00">所</text>
</g>
<!-- mining_35kv&#45;&gt;load_m2 -->
<g id="edge6" class="edge">
<title>mining_35kv&#45;&gt;load_m2</title>
<path fill="none" stroke="black" d="M545.81,-292C425.03,-292 155,-292 155,-292 155,-292 155,-156.52 155,-156.52"/>
<polygon fill="black" stroke="black" points="158.5,-156.52 155,-146.52 151.5,-156.52 158.5,-156.52"/>
</g>
<!-- load_m3 -->
<g id="node8" class="node">
<title>load_m3</title>
<polygon fill="#d5e8d4" stroke="black" points="294,-144.75 240,-144.75 240,-31.75 294,-31.75 294,-144.75"/>
<text xml:space="preserve" text-anchor="middle" x="267" y="-131.25" font-family="SimHei" font-size="10.00">井</text>
<text xml:space="preserve" text-anchor="middle" x="267" y="-120.75" font-family="SimHei" font-size="10.00">下</text>
<text xml:space="preserve" text-anchor="middle" x="267" y="-110.25" font-family="SimHei" font-size="10.00">3</text>
<text xml:space="preserve" text-anchor="middle" x="267" y="-99.75" font-family="SimHei" font-size="10.00">0</text>
<text xml:space="preserve" text-anchor="middle" x="267" y="-89.25" font-family="SimHei" font-size="10.00">2</text>
<text xml:space="preserve" text-anchor="middle" x="267" y="-78.75" font-family="SimHei" font-size="10.00">盘</text>
<text xml:space="preserve" text-anchor="middle" x="267" y="-68.25" font-family="SimHei" font-size="10.00">区</text>
<text xml:space="preserve" text-anchor="middle" x="267" y="-57.75" font-family="SimHei" font-size="10.00">变</text>
<text xml:space="preserve" text-anchor="middle" x="267" y="-47.25" font-family="SimHei" font-size="10.00">电</text>
<text xml:space="preserve" text-anchor="middle" x="267" y="-36.75" font-family="SimHei" font-size="10.00">所</text>
</g>
<!-- mining_35kv&#45;&gt;load_m3 -->
<g id="edge7" class="edge">
<title>mining_35kv&#45;&gt;load_m3</title>
<path fill="none" stroke="black" d="M560.94,-270.17C560.94,-229.24 560.94,-134 560.94,-134 560.94,-134 305.9,-134 305.9,-134"/>
<polygon fill="black" stroke="black" points="305.9,-130.5 295.9,-134 305.9,-137.5 305.9,-130.5"/>
</g>
<!-- load_m4 -->
<g id="node9" class="node">
<title>load_m4</title>
<polygon fill="#d5e8d4" stroke="black" points="406,-123.75 352,-123.75 352,-52.75 406,-52.75 406,-123.75"/>
<text xml:space="preserve" text-anchor="middle" x="379" y="-110.25" font-family="SimHei" font-size="10.00">东</text>
<text xml:space="preserve" text-anchor="middle" x="379" y="-99.75" font-family="SimHei" font-size="10.00">风</text>
<text xml:space="preserve" text-anchor="middle" x="379" y="-89.25" font-family="SimHei" font-size="10.00">井</text>
<text xml:space="preserve" text-anchor="middle" x="379" y="-78.75" font-family="SimHei" font-size="10.00">配</text>
<text xml:space="preserve" text-anchor="middle" x="379" y="-68.25" font-family="SimHei" font-size="10.00">电</text>
<text xml:space="preserve" text-anchor="middle" x="379" y="-57.75" font-family="SimHei" font-size="10.00">室</text>
</g>
<!-- mining_35kv&#45;&gt;load_m4 -->
<g id="edge8" class="edge">
<title>mining_35kv&#45;&gt;load_m4</title>
<path fill="none" stroke="black" d="M545.61,-285C479.24,-285 379,-285 379,-285 379,-285 379,-135.39 379,-135.39"/>
<polygon fill="black" stroke="black" points="382.5,-135.39 379,-125.39 375.5,-135.39 382.5,-135.39"/>
</g>
<!-- load_m5 -->
<g id="node10" class="node">
<title>load_m5</title>
<polygon fill="#d5e8d4" stroke="black" points="518,-123.75 464,-123.75 464,-52.75 518,-52.75 518,-123.75"/>
<text xml:space="preserve" text-anchor="middle" x="491" y="-110.25" font-family="SimHei" font-size="10.00">西</text>
<text xml:space="preserve" text-anchor="middle" x="491" y="-99.75" font-family="SimHei" font-size="10.00">风</text>
<text xml:space="preserve" text-anchor="middle" x="491" y="-89.25" font-family="SimHei" font-size="10.00">井</text>
<text xml:space="preserve" text-anchor="middle" x="491" y="-78.75" font-family="SimHei" font-size="10.00">配</text>
<text xml:space="preserve" text-anchor="middle" x="491" y="-68.25" font-family="SimHei" font-size="10.00">电</text>
<text xml:space="preserve" text-anchor="middle" x="491" y="-57.75" font-family="SimHei" font-size="10.00">室</text>
</g>
<!-- mining_35kv&#45;&gt;load_m5 -->
<g id="edge9" class="edge">
<title>mining_35kv&#45;&gt;load_m5</title>
<path fill="none" stroke="black" d="M545.69,-278C518.13,-278 491,-278 491,-278 491,-278 491,-135.45 491,-135.45"/>
<polygon fill="black" stroke="black" points="494.5,-135.45 491,-125.45 487.5,-135.45 494.5,-135.45"/>
</g>
<!-- load_m6 -->
<g id="node11" class="node">
<title>load_m6</title>
<polygon fill="#d5e8d4" stroke="black" points="630,-144.75 576,-144.75 576,-31.75 630,-31.75 630,-144.75"/>
<text xml:space="preserve" text-anchor="middle" x="603" y="-131.25" font-family="SimHei" font-size="10.00">1</text>
<text xml:space="preserve" text-anchor="middle" x="603" y="-120.75" font-family="SimHei" font-size="10.00">#</text>
<text xml:space="preserve" text-anchor="middle" x="603" y="-110.25" font-family="SimHei" font-size="10.00">主</text>
<text xml:space="preserve" text-anchor="middle" x="603" y="-99.75" font-family="SimHei" font-size="10.00">井</text>
<text xml:space="preserve" text-anchor="middle" x="603" y="-89.25" font-family="SimHei" font-size="10.00">提</text>
<text xml:space="preserve" text-anchor="middle" x="603" y="-78.75" font-family="SimHei" font-size="10.00">升</text>
<text xml:space="preserve" text-anchor="middle" x="603" y="-68.25" font-family="SimHei" font-size="10.00">机</text>
<text xml:space="preserve" text-anchor="middle" x="603" y="-57.75" font-family="SimHei" font-size="10.00">配</text>
<text xml:space="preserve" text-anchor="middle" x="603" y="-47.25" font-family="SimHei" font-size="10.00">电</text>
<text xml:space="preserve" text-anchor="middle" x="603" y="-36.75" font-family="SimHei" font-size="10.00">室</text>
</g>
<!-- mining_35kv&#45;&gt;load_m6 -->
<g id="edge10" class="edge">
<title>mining_35kv&#45;&gt;load_m6</title>
<path fill="none" stroke="black" d="M603,-270.02C603,-270.02 603,-156.38 603,-156.38"/>
<polygon fill="black" stroke="black" points="606.5,-156.38 603,-146.38 599.5,-156.38 606.5,-156.38"/>
</g>
<!-- load_m7 -->
<g id="node12" class="node">
<title>load_m7</title>
<polygon fill="#d5e8d4" stroke="black" points="742,-144.75 688,-144.75 688,-31.75 742,-31.75 742,-144.75"/>
<text xml:space="preserve" text-anchor="middle" x="715" y="-131.25" font-family="SimHei" font-size="10.00">2</text>
<text xml:space="preserve" text-anchor="middle" x="715" y="-120.75" font-family="SimHei" font-size="10.00">#</text>
<text xml:space="preserve" text-anchor="middle" x="715" y="-110.25" font-family="SimHei" font-size="10.00">主</text>
<text xml:space="preserve" text-anchor="middle" x="715" y="-99.75" font-family="SimHei" font-size="10.00">井</text>
<text xml:space="preserve" text-anchor="middle" x="715" y="-89.25" font-family="SimHei" font-size="10.00">提</text>
<text xml:space="preserve" text-anchor="middle" x="715" y="-78.75" font-family="SimHei" font-size="10.00">升</text>
<text xml:space="preserve" text-anchor="middle" x="715" y="-68.25" font-family="SimHei" font-size="10.00">机</text>
<text xml:space="preserve" text-anchor="middle" x="715" y="-57.75" font-family="SimHei" font-size="10.00">配</text>
<text xml:space="preserve" text-anchor="middle" x="715" y="-47.25" font-family="SimHei" font-size="10.00">电</text>
<text xml:space="preserve" text-anchor="middle" x="715" y="-36.75" font-family="SimHei" font-size="10.00">室</text>
</g>
<!-- mining_35kv&#45;&gt;load_m7 -->
<g id="edge11" class="edge">
<title>mining_35kv&#45;&gt;load_m7</title>
<path fill="none" stroke="black" d="M660.31,-275C687.87,-275 715,-275 715,-275 715,-275 715,-156.56 715,-156.56"/>
<polygon fill="black" stroke="black" points="718.5,-156.56 715,-146.56 711.5,-156.56 718.5,-156.56"/>
</g>
<!-- load_m8 -->
<g id="node13" class="node">
<title>load_m8</title>
<polygon fill="#d5e8d4" stroke="black" points="854,-139.5 800,-139.5 800,-37 854,-37 854,-139.5"/>
<text xml:space="preserve" text-anchor="middle" x="827" y="-126" font-family="SimHei" font-size="10.00">副</text>
<text xml:space="preserve" text-anchor="middle" x="827" y="-115.5" font-family="SimHei" font-size="10.00">井</text>
<text xml:space="preserve" text-anchor="middle" x="827" y="-105" font-family="SimHei" font-size="10.00">提</text>
<text xml:space="preserve" text-anchor="middle" x="827" y="-94.5" font-family="SimHei" font-size="10.00">升</text>
<text xml:space="preserve" text-anchor="middle" x="827" y="-84" font-family="SimHei" font-size="10.00">机</text>
<text xml:space="preserve" text-anchor="middle" x="827" y="-73.5" font-family="SimHei" font-size="10.00">房</text>
<text xml:space="preserve" text-anchor="middle" x="827" y="-63" font-family="SimHei" font-size="10.00">配</text>
<text xml:space="preserve" text-anchor="middle" x="827" y="-52.5" font-family="SimHei" font-size="10.00">电</text>
<text xml:space="preserve" text-anchor="middle" x="827" y="-42" font-family="SimHei" font-size="10.00">室</text>
</g>
<!-- mining_35kv&#45;&gt;load_m8 -->
<g id="edge12" class="edge">
<title>mining_35kv&#45;&gt;load_m8</title>
<path fill="none" stroke="black" d="M660.39,-284C726.76,-284 827,-284 827,-284 827,-284 827,-151.45 827,-151.45"/>
<polygon fill="black" stroke="black" points="830.5,-151.45 827,-141.45 823.5,-151.45 830.5,-151.45"/>
</g>
<!-- load_m9 -->
<g id="node14" class="node">
<title>load_m9</title>
<polygon fill="#d5e8d4" stroke="black" points="966,-150 912,-150 912,-26.5 966,-26.5 966,-150"/>
<text xml:space="preserve" text-anchor="middle" x="939" y="-136.5" font-family="SimHei" font-size="10.00">副</text>
<text xml:space="preserve" text-anchor="middle" x="939" y="-126" font-family="SimHei" font-size="10.00">井</text>
<text xml:space="preserve" text-anchor="middle" x="939" y="-115.5" font-family="SimHei" font-size="10.00">交</text>
<text xml:space="preserve" text-anchor="middle" x="939" y="-105" font-family="SimHei" font-size="10.00">通</text>
<text xml:space="preserve" text-anchor="middle" x="939" y="-94.5" font-family="SimHei" font-size="10.00">罐</text>
<text xml:space="preserve" text-anchor="middle" x="939" y="-84" font-family="SimHei" font-size="10.00">提</text>
<text xml:space="preserve" text-anchor="middle" x="939" y="-73.5" font-family="SimHei" font-size="10.00">升</text>
<text xml:space="preserve" text-anchor="middle" x="939" y="-63" font-family="SimHei" font-size="10.00">机</text>
<text xml:space="preserve" text-anchor="middle" x="939" y="-52.5" font-family="SimHei" font-size="10.00">配</text>
<text xml:space="preserve" text-anchor="middle" x="939" y="-42" font-family="SimHei" font-size="10.00">电</text>
<text xml:space="preserve" text-anchor="middle" x="939" y="-31.5" font-family="SimHei" font-size="10.00">室</text>
</g>
<!-- mining_35kv&#45;&gt;load_m9 -->
<g id="edge13" class="edge">
<title>mining_35kv&#45;&gt;load_m9</title>
<path fill="none" stroke="black" d="M660.38,-293C756.34,-293 939,-293 939,-293 939,-293 939,-161.75 939,-161.75"/>
<polygon fill="black" stroke="black" points="942.5,-161.75 939,-151.75 935.5,-161.75 942.5,-161.75"/>
</g>
<!-- load_m10 -->
<g id="node15" class="node">
<title>load_m10</title>
<polygon fill="#d5e8d4" stroke="black" points="1078,-144.75 1024,-144.75 1024,-31.75 1078,-31.75 1078,-144.75"/>
<text xml:space="preserve" text-anchor="middle" x="1051" y="-131.25" font-family="SimHei" font-size="10.00">潜</text>
<text xml:space="preserve" text-anchor="middle" x="1051" y="-120.75" font-family="SimHei" font-size="10.00">水</text>
<text xml:space="preserve" text-anchor="middle" x="1051" y="-110.25" font-family="SimHei" font-size="10.00">泵</text>
<text xml:space="preserve" text-anchor="middle" x="1051" y="-99.75" font-family="SimHei" font-size="10.00">泵</text>
<text xml:space="preserve" text-anchor="middle" x="1051" y="-89.25" font-family="SimHei" font-size="10.00">房</text>
<text xml:space="preserve" text-anchor="middle" x="1051" y="-78.75" font-family="SimHei" font-size="10.00">地</text>
<text xml:space="preserve" text-anchor="middle" x="1051" y="-68.25" font-family="SimHei" font-size="10.00">面</text>
<text xml:space="preserve" text-anchor="middle" x="1051" y="-57.75" font-family="SimHei" font-size="10.00">配</text>
<text xml:space="preserve" text-anchor="middle" x="1051" y="-47.25" font-family="SimHei" font-size="10.00">电</text>
<text xml:space="preserve" text-anchor="middle" x="1051" y="-36.75" font-family="SimHei" font-size="10.00">室</text>
</g>
<!-- mining_35kv&#45;&gt;load_m10 -->
<g id="edge14" class="edge">
<title>mining_35kv&#45;&gt;load_m10</title>
<path fill="none" stroke="black" d="M660.19,-302C780.97,-302 1051,-302 1051,-302 1051,-302 1051,-156.48 1051,-156.48"/>
<polygon fill="black" stroke="black" points="1054.5,-156.48 1051,-146.48 1047.5,-156.48 1054.5,-156.48"/>
</g>
<!-- load_p1 -->
<g id="node16" class="node">
<title>load_p1</title>
<polygon fill="#d5e8d4" stroke="black" points="1190,-144.75 1136,-144.75 1136,-31.75 1190,-31.75 1190,-144.75"/>
<text xml:space="preserve" text-anchor="middle" x="1163" y="-131.25" font-family="SimHei" font-size="10.00">原</text>
<text xml:space="preserve" text-anchor="middle" x="1163" y="-120.75" font-family="SimHei" font-size="10.00">矿</text>
<text xml:space="preserve" text-anchor="middle" x="1163" y="-110.25" font-family="SimHei" font-size="10.00">储</text>
<text xml:space="preserve" text-anchor="middle" x="1163" y="-99.75" font-family="SimHei" font-size="10.00">仓</text>
<text xml:space="preserve" text-anchor="middle" x="1163" y="-89.25" font-family="SimHei" font-size="10.00">配</text>
<text xml:space="preserve" text-anchor="middle" x="1163" y="-78.75" font-family="SimHei" font-size="10.00">电</text>
<text xml:space="preserve" text-anchor="middle" x="1163" y="-68.25" font-family="SimHei" font-size="10.00">室</text>
<text xml:space="preserve" text-anchor="middle" x="1163" y="-57.75" font-family="SimHei" font-size="10.00">6</text>
<text xml:space="preserve" text-anchor="middle" x="1163" y="-47.25" font-family="SimHei" font-size="10.00">4</text>
<text xml:space="preserve" text-anchor="middle" x="1163" y="-36.75" font-family="SimHei" font-size="10.00">1</text>
</g>
<!-- processing_35kv&#45;&gt;load_p1 -->
<g id="edge15" class="edge">
<title>processing_35kv&#45;&gt;load_p1</title>
<path fill="none" stroke="black" d="M1466.05,-298C1350.39,-298 1163,-298 1163,-298 1163,-298 1163,-156.52 1163,-156.52"/>
<polygon fill="black" stroke="black" points="1166.5,-156.52 1163,-146.52 1159.5,-156.52 1166.5,-156.52"/>
</g>
<!-- load_p2 -->
<g id="node17" class="node">
<title>load_p2</title>
<polygon fill="#d5e8d4" stroke="black" points="1302,-134.25 1248,-134.25 1248,-42.25 1302,-42.25 1302,-134.25"/>
<text xml:space="preserve" text-anchor="middle" x="1275" y="-120.75" font-family="SimHei" font-size="10.00">筛</text>
<text xml:space="preserve" text-anchor="middle" x="1275" y="-110.25" font-family="SimHei" font-size="10.00">分</text>
<text xml:space="preserve" text-anchor="middle" x="1275" y="-99.75" font-family="SimHei" font-size="10.00">配</text>
<text xml:space="preserve" text-anchor="middle" x="1275" y="-89.25" font-family="SimHei" font-size="10.00">电</text>
<text xml:space="preserve" text-anchor="middle" x="1275" y="-78.75" font-family="SimHei" font-size="10.00">室</text>
<text xml:space="preserve" text-anchor="middle" x="1275" y="-68.25" font-family="SimHei" font-size="10.00">6</text>
<text xml:space="preserve" text-anchor="middle" x="1275" y="-57.75" font-family="SimHei" font-size="10.00">4</text>
<text xml:space="preserve" text-anchor="middle" x="1275" y="-47.25" font-family="SimHei" font-size="10.00">2</text>
</g>
<!-- processing_35kv&#45;&gt;load_p2 -->
<g id="edge16" class="edge">
<title>processing_35kv&#45;&gt;load_p2</title>
<path fill="none" stroke="black" d="M1466.02,-289C1384.03,-289 1275,-289 1275,-289 1275,-289 1275,-146.07 1275,-146.07"/>
<polygon fill="black" stroke="black" points="1278.5,-146.07 1275,-136.07 1271.5,-146.07 1278.5,-146.07"/>
</g>
<!-- load_p3 -->
<g id="node18" class="node">
<title>load_p3</title>
<polygon fill="#d5e8d4" stroke="black" points="1414,-150 1360,-150 1360,-26.5 1414,-26.5 1414,-150"/>
<text xml:space="preserve" text-anchor="middle" x="1387" y="-136.5" font-family="SimHei" font-size="10.00">分</text>
<text xml:space="preserve" text-anchor="middle" x="1387" y="-126" font-family="SimHei" font-size="10.00">解</text>
<text xml:space="preserve" text-anchor="middle" x="1387" y="-115.5" font-family="SimHei" font-size="10.00">结</text>
<text xml:space="preserve" text-anchor="middle" x="1387" y="-105" font-family="SimHei" font-size="10.00">晶</text>
<text xml:space="preserve" text-anchor="middle" x="1387" y="-94.5" font-family="SimHei" font-size="10.00">变</text>
<text xml:space="preserve" text-anchor="middle" x="1387" y="-84" font-family="SimHei" font-size="10.00">配</text>
<text xml:space="preserve" text-anchor="middle" x="1387" y="-73.5" font-family="SimHei" font-size="10.00">电</text>
<text xml:space="preserve" text-anchor="middle" x="1387" y="-63" font-family="SimHei" font-size="10.00">室</text>
<text xml:space="preserve" text-anchor="middle" x="1387" y="-52.5" font-family="SimHei" font-size="10.00">6</text>
<text xml:space="preserve" text-anchor="middle" x="1387" y="-42" font-family="SimHei" font-size="10.00">4</text>
<text xml:space="preserve" text-anchor="middle" x="1387" y="-31.5" font-family="SimHei" font-size="10.00">3</text>
</g>
<!-- processing_35kv&#45;&gt;load_p3 -->
<g id="edge17" class="edge">
<title>processing_35kv&#45;&gt;load_p3</title>
<path fill="none" stroke="black" d="M1466.08,-280C1425.78,-280 1387,-280 1387,-280 1387,-280 1387,-161.75 1387,-161.75"/>
<polygon fill="black" stroke="black" points="1390.5,-161.75 1387,-151.75 1383.5,-161.75 1390.5,-161.75"/>
</g>
<!-- load_p4 -->
<g id="node19" class="node">
<title>load_p4</title>
<polygon fill="#d5e8d4" stroke="black" points="1526,-160.5 1472,-160.5 1472,-16 1526,-16 1526,-160.5"/>
<text xml:space="preserve" text-anchor="middle" x="1499" y="-147" font-family="SimHei" font-size="10.00">选</text>
<text xml:space="preserve" text-anchor="middle" x="1499" y="-136.5" font-family="SimHei" font-size="10.00">过</text>
<text xml:space="preserve" text-anchor="middle" x="1499" y="-126" font-family="SimHei" font-size="10.00">滤</text>
<text xml:space="preserve" text-anchor="middle" x="1499" y="-115.5" font-family="SimHei" font-size="10.00">车</text>
<text xml:space="preserve" text-anchor="middle" x="1499" y="-105" font-family="SimHei" font-size="10.00">间</text>
<text xml:space="preserve" text-anchor="middle" x="1499" y="-94.5" font-family="SimHei" font-size="10.00">浮</text>
<text xml:space="preserve" text-anchor="middle" x="1499" y="-84" font-family="SimHei" font-size="10.00">选</text>
<text xml:space="preserve" text-anchor="middle" x="1499" y="-73.5" font-family="SimHei" font-size="10.00">配</text>
<text xml:space="preserve" text-anchor="middle" x="1499" y="-63" font-family="SimHei" font-size="10.00">电</text>
<text xml:space="preserve" text-anchor="middle" x="1499" y="-52.5" font-family="SimHei" font-size="10.00">室</text>
<text xml:space="preserve" text-anchor="middle" x="1499" y="-42" font-family="SimHei" font-size="10.00">6</text>
<text xml:space="preserve" text-anchor="middle" x="1499" y="-31.5" font-family="SimHei" font-size="10.00">4</text>
<text xml:space="preserve" text-anchor="middle" x="1499" y="-21" font-family="SimHei" font-size="10.00">4</text>
</g>
<!-- processing_35kv&#45;&gt;load_p4 -->
<g id="edge18" class="edge">
<title>processing_35kv&#45;&gt;load_p4</title>
<path fill="none" stroke="black" d="M1499,-270.02C1499,-270.02 1499,-172.06 1499,-172.06"/>
<polygon fill="black" stroke="black" points="1502.5,-172.06 1499,-162.06 1495.5,-172.06 1502.5,-172.06"/>
</g>
<!-- load_p5 -->
<g id="node20" class="node">
<title>load_p5</title>
<polygon fill="#d5e8d4" stroke="black" points="1638,-160.5 1584,-160.5 1584,-16 1638,-16 1638,-160.5"/>
<text xml:space="preserve" text-anchor="middle" x="1611" y="-147" font-family="SimHei" font-size="10.00">选</text>
<text xml:space="preserve" text-anchor="middle" x="1611" y="-136.5" font-family="SimHei" font-size="10.00">过</text>
<text xml:space="preserve" text-anchor="middle" x="1611" y="-126" font-family="SimHei" font-size="10.00">滤</text>
<text xml:space="preserve" text-anchor="middle" x="1611" y="-115.5" font-family="SimHei" font-size="10.00">车</text>
<text xml:space="preserve" text-anchor="middle" x="1611" y="-105" font-family="SimHei" font-size="10.00">间</text>
<text xml:space="preserve" text-anchor="middle" x="1611" y="-94.5" font-family="SimHei" font-size="10.00">过</text>
<text xml:space="preserve" text-anchor="middle" x="1611" y="-84" font-family="SimHei" font-size="10.00">滤</text>
<text xml:space="preserve" text-anchor="middle" x="1611" y="-73.5" font-family="SimHei" font-size="10.00">配</text>
<text xml:space="preserve" text-anchor="middle" x="1611" y="-63" font-family="SimHei" font-size="10.00">电</text>
<text xml:space="preserve" text-anchor="middle" x="1611" y="-52.5" font-family="SimHei" font-size="10.00">室</text>
<text xml:space="preserve" text-anchor="middle" x="1611" y="-42" font-family="SimHei" font-size="10.00">6</text>
<text xml:space="preserve" text-anchor="middle" x="1611" y="-31.5" font-family="SimHei" font-size="10.00">4</text>
<text xml:space="preserve" text-anchor="middle" x="1611" y="-21" font-family="SimHei" font-size="10.00">5</text>
</g>
<!-- processing_35kv&#45;&gt;load_p5 -->
<g id="edge19" class="edge">
<title>processing_35kv&#45;&gt;load_p5</title>
<path fill="none" stroke="black" d="M1611,-270.02C1611,-270.02 1611,-172.06 1611,-172.06"/>
<polygon fill="black" stroke="black" points="1614.5,-172.06 1611,-162.06 1607.5,-172.06 1614.5,-172.06"/>
</g>
<!-- load_p6 -->
<g id="node21" class="node">
<title>load_p6</title>
<polygon fill="#d5e8d4" stroke="black" points="1750,-139.5 1696,-139.5 1696,-37 1750,-37 1750,-139.5"/>
<text xml:space="preserve" text-anchor="middle" x="1723" y="-126" font-family="SimHei" font-size="10.00">生</text>
<text xml:space="preserve" text-anchor="middle" x="1723" y="-115.5" font-family="SimHei" font-size="10.00">活</text>
<text xml:space="preserve" text-anchor="middle" x="1723" y="-105" font-family="SimHei" font-size="10.00">区</text>
<text xml:space="preserve" text-anchor="middle" x="1723" y="-94.5" font-family="SimHei" font-size="10.00">变</text>
<text xml:space="preserve" text-anchor="middle" x="1723" y="-84" font-family="SimHei" font-size="10.00">电</text>
<text xml:space="preserve" text-anchor="middle" x="1723" y="-73.5" font-family="SimHei" font-size="10.00">所</text>
<text xml:space="preserve" text-anchor="middle" x="1723" y="-63" font-family="SimHei" font-size="10.00">3</text>
<text xml:space="preserve" text-anchor="middle" x="1723" y="-52.5" font-family="SimHei" font-size="10.00">2</text>
<text xml:space="preserve" text-anchor="middle" x="1723" y="-42" font-family="SimHei" font-size="10.00">0</text>
</g>
<!-- processing_35kv&#45;&gt;load_p6 -->
<g id="edge20" class="edge">
<title>processing_35kv&#45;&gt;load_p6</title>
<path fill="none" stroke="black" d="M1643.92,-285C1684.22,-285 1723,-285 1723,-285 1723,-285 1723,-151.46 1723,-151.46"/>
<polygon fill="black" stroke="black" points="1726.5,-151.46 1723,-141.46 1719.5,-151.46 1726.5,-151.46"/>
</g>
<!-- load_p7 -->
<g id="node22" class="node">
<title>load_p7</title>
<polygon fill="#d5e8d4" stroke="black" points="1862,-144.75 1808,-144.75 1808,-31.75 1862,-31.75 1862,-144.75"/>
<text xml:space="preserve" text-anchor="middle" x="1835" y="-131.25" font-family="SimHei" font-size="10.00">熔</text>
<text xml:space="preserve" text-anchor="middle" x="1835" y="-120.75" font-family="SimHei" font-size="10.00">炼</text>
<text xml:space="preserve" text-anchor="middle" x="1835" y="-110.25" font-family="SimHei" font-size="10.00">装</text>
<text xml:space="preserve" text-anchor="middle" x="1835" y="-99.75" font-family="SimHei" font-size="10.00">置</text>
<text xml:space="preserve" text-anchor="middle" x="1835" y="-89.25" font-family="SimHei" font-size="10.00">变</text>
<text xml:space="preserve" text-anchor="middle" x="1835" y="-78.75" font-family="SimHei" font-size="10.00">电</text>
<text xml:space="preserve" text-anchor="middle" x="1835" y="-68.25" font-family="SimHei" font-size="10.00">所</text>
<text xml:space="preserve" text-anchor="middle" x="1835" y="-57.75" font-family="SimHei" font-size="10.00">3</text>
<text xml:space="preserve" text-anchor="middle" x="1835" y="-47.25" font-family="SimHei" font-size="10.00">1</text>
<text xml:space="preserve" text-anchor="middle" x="1835" y="-36.75" font-family="SimHei" font-size="10.00">0</text>
</g>
<!-- processing_35kv&#45;&gt;load_p7 -->
<g id="edge21" class="edge">
<title>processing_35kv&#45;&gt;load_p7</title>
<path fill="none" stroke="black" d="M1643.98,-292C1725.97,-292 1835,-292 1835,-292 1835,-292 1835,-156.52 1835,-156.52"/>
<polygon fill="black" stroke="black" points="1838.5,-156.52 1835,-146.52 1831.5,-156.52 1838.5,-156.52"/>
</g>
<!-- load_p8 -->
<g id="node23" class="node">
<title>load_p8</title>
<polygon fill="#d5e8d4" stroke="black" points="1974,-144.75 1920,-144.75 1920,-31.75 1974,-31.75 1974,-144.75"/>
<text xml:space="preserve" text-anchor="middle" x="1947" y="-131.25" font-family="SimHei" font-size="10.00">提</text>
<text xml:space="preserve" text-anchor="middle" x="1947" y="-120.75" font-family="SimHei" font-size="10.00">溴</text>
<text xml:space="preserve" text-anchor="middle" x="1947" y="-110.25" font-family="SimHei" font-size="10.00">装</text>
<text xml:space="preserve" text-anchor="middle" x="1947" y="-99.75" font-family="SimHei" font-size="10.00">置</text>
<text xml:space="preserve" text-anchor="middle" x="1947" y="-89.25" font-family="SimHei" font-size="10.00">变</text>
<text xml:space="preserve" text-anchor="middle" x="1947" y="-78.75" font-family="SimHei" font-size="10.00">电</text>
<text xml:space="preserve" text-anchor="middle" x="1947" y="-68.25" font-family="SimHei" font-size="10.00">所</text>
<text xml:space="preserve" text-anchor="middle" x="1947" y="-57.75" font-family="SimHei" font-size="10.00">3</text>
<text xml:space="preserve" text-anchor="middle" x="1947" y="-47.25" font-family="SimHei" font-size="10.00">1</text>
<text xml:space="preserve" text-anchor="middle" x="1947" y="-36.75" font-family="SimHei" font-size="10.00">1</text>
</g>
<!-- processing_35kv&#45;&gt;load_p8 -->
<g id="edge22" class="edge">
<title>processing_35kv&#45;&gt;load_p8</title>
<path fill="none" stroke="black" d="M1643.95,-299C1759.61,-299 1947,-299 1947,-299 1947,-299 1947,-156.52 1947,-156.52"/>
<polygon fill="black" stroke="black" points="1950.5,-156.52 1947,-146.52 1943.5,-156.52 1950.5,-156.52"/>
</g>
<!-- load_g1 -->
<g id="node24" class="node">
<title>load_g1</title>
<polygon fill="#d5e8d4" stroke="black" points="2086,-144.75 2032,-144.75 2032,-31.75 2086,-31.75 2086,-144.75"/>
<text xml:space="preserve" text-anchor="middle" x="2059" y="-131.25" font-family="SimHei" font-size="10.00">精</text>
<text xml:space="preserve" text-anchor="middle" x="2059" y="-120.75" font-family="SimHei" font-size="10.00">矿</text>
<text xml:space="preserve" text-anchor="middle" x="2059" y="-110.25" font-family="SimHei" font-size="10.00">脱</text>
<text xml:space="preserve" text-anchor="middle" x="2059" y="-99.75" font-family="SimHei" font-size="10.00">卤</text>
<text xml:space="preserve" text-anchor="middle" x="2059" y="-89.25" font-family="SimHei" font-size="10.00">变</text>
<text xml:space="preserve" text-anchor="middle" x="2059" y="-78.75" font-family="SimHei" font-size="10.00">电</text>
<text xml:space="preserve" text-anchor="middle" x="2059" y="-68.25" font-family="SimHei" font-size="10.00">所</text>
<text xml:space="preserve" text-anchor="middle" x="2059" y="-57.75" font-family="SimHei" font-size="10.00">3</text>
<text xml:space="preserve" text-anchor="middle" x="2059" y="-47.25" font-family="SimHei" font-size="10.00">1</text>
<text xml:space="preserve" text-anchor="middle" x="2059" y="-36.75" font-family="SimHei" font-size="10.00">5</text>
</g>
<!-- pelletizing_35kv&#45;&gt;load_g1 -->
<g id="edge23" class="edge">
<title>pelletizing_35kv&#45;&gt;load_g1</title>
<path fill="none" stroke="black" d="M2162.53,-278C2115.15,-278 2059,-278 2059,-278 2059,-278 2059,-156.69 2059,-156.69"/>
<polygon fill="black" stroke="black" points="2062.5,-156.69 2059,-146.69 2055.5,-156.69 2062.5,-156.69"/>
</g>
<!-- load_g2 -->
<g id="node25" class="node">
<title>load_g2</title>
<polygon fill="#d5e8d4" stroke="black" points="2198,-144.75 2144,-144.75 2144,-31.75 2198,-31.75 2198,-144.75"/>
<text xml:space="preserve" text-anchor="middle" x="2171" y="-131.25" font-family="SimHei" font-size="10.00">干</text>
<text xml:space="preserve" text-anchor="middle" x="2171" y="-120.75" font-family="SimHei" font-size="10.00">燥</text>
<text xml:space="preserve" text-anchor="middle" x="2171" y="-110.25" font-family="SimHei" font-size="10.00">储</text>
<text xml:space="preserve" text-anchor="middle" x="2171" y="-99.75" font-family="SimHei" font-size="10.00">运</text>
<text xml:space="preserve" text-anchor="middle" x="2171" y="-89.25" font-family="SimHei" font-size="10.00">变</text>
<text xml:space="preserve" text-anchor="middle" x="2171" y="-78.75" font-family="SimHei" font-size="10.00">电</text>
<text xml:space="preserve" text-anchor="middle" x="2171" y="-68.25" font-family="SimHei" font-size="10.00">所</text>
<text xml:space="preserve" text-anchor="middle" x="2171" y="-57.75" font-family="SimHei" font-size="10.00">3</text>
<text xml:space="preserve" text-anchor="middle" x="2171" y="-47.25" font-family="SimHei" font-size="10.00">1</text>
<text xml:space="preserve" text-anchor="middle" x="2171" y="-36.75" font-family="SimHei" font-size="10.00">6</text>
</g>
<!-- pelletizing_35kv&#45;&gt;load_g2 -->
<g id="edge24" class="edge">
<title>pelletizing_35kv&#45;&gt;load_g2</title>
<path fill="none" stroke="black" d="M2180.38,-269.3C2180.38,-269.3 2180.38,-156.35 2180.38,-156.35"/>
<polygon fill="black" stroke="black" points="2183.88,-156.35 2180.38,-146.35 2176.88,-156.35 2183.88,-156.35"/>
</g>
<!-- load_g3 -->
<g id="node26" class="node">
<title>load_g3</title>
<polygon fill="#d5e8d4" stroke="black" points="2310,-134.25 2256,-134.25 2256,-42.25 2310,-42.25 2310,-134.25"/>
<text xml:space="preserve" text-anchor="middle" x="2283" y="-120.75" font-family="SimHei" font-size="10.00">陆</text>
<text xml:space="preserve" text-anchor="middle" x="2283" y="-110.25" font-family="SimHei" font-size="10.00">域</text>
<text xml:space="preserve" text-anchor="middle" x="2283" y="-99.75" font-family="SimHei" font-size="10.00">变</text>
<text xml:space="preserve" text-anchor="middle" x="2283" y="-89.25" font-family="SimHei" font-size="10.00">电</text>
<text xml:space="preserve" text-anchor="middle" x="2283" y="-78.75" font-family="SimHei" font-size="10.00">所</text>
<text xml:space="preserve" text-anchor="middle" x="2283" y="-68.25" font-family="SimHei" font-size="10.00">3</text>
<text xml:space="preserve" text-anchor="middle" x="2283" y="-57.75" font-family="SimHei" font-size="10.00">1</text>
<text xml:space="preserve" text-anchor="middle" x="2283" y="-47.25" font-family="SimHei" font-size="10.00">7</text>
</g>
<!-- pelletizing_35kv&#45;&gt;load_g3 -->
<g id="edge25" class="edge">
<title>pelletizing_35kv&#45;&gt;load_g3</title>
<path fill="none" stroke="black" d="M2267.75,-269.3C2267.75,-269.3 2267.75,-146.26 2267.75,-146.26"/>
<polygon fill="black" stroke="black" points="2271.25,-146.26 2267.75,-136.26 2264.25,-146.26 2271.25,-146.26"/>
</g>
<!-- load_g4 -->
<g id="node27" class="node">
<title>load_g4</title>
<polygon fill="#d5e8d4" stroke="black" points="2422,-144.75 2368,-144.75 2368,-31.75 2422,-31.75 2422,-144.75"/>
<text xml:space="preserve" text-anchor="middle" x="2395" y="-131.25" font-family="SimHei" font-size="10.00">盐</text>
<text xml:space="preserve" text-anchor="middle" x="2395" y="-120.75" font-family="SimHei" font-size="10.00">水</text>
<text xml:space="preserve" text-anchor="middle" x="2395" y="-110.25" font-family="SimHei" font-size="10.00">排</text>
<text xml:space="preserve" text-anchor="middle" x="2395" y="-99.75" font-family="SimHei" font-size="10.00">海</text>
<text xml:space="preserve" text-anchor="middle" x="2395" y="-89.25" font-family="SimHei" font-size="10.00">配</text>
<text xml:space="preserve" text-anchor="middle" x="2395" y="-78.75" font-family="SimHei" font-size="10.00">电</text>
<text xml:space="preserve" text-anchor="middle" x="2395" y="-68.25" font-family="SimHei" font-size="10.00">室</text>
<text xml:space="preserve" text-anchor="middle" x="2395" y="-57.75" font-family="SimHei" font-size="10.00">3</text>
<text xml:space="preserve" text-anchor="middle" x="2395" y="-47.25" font-family="SimHei" font-size="10.00">1</text>
<text xml:space="preserve" text-anchor="middle" x="2395" y="-36.75" font-family="SimHei" font-size="10.00">8</text>
</g>
<!-- pelletizing_35kv&#45;&gt;load_g4 -->
<g id="edge26" class="edge">
<title>pelletizing_35kv&#45;&gt;load_g4</title>
<path fill="none" stroke="black" d="M2279.5,-269.09C2279.5,-228.83 2279.5,-140 2279.5,-140 2279.5,-140 2356.11,-140 2356.11,-140"/>
<polygon fill="black" stroke="black" points="2356.11,-143.5 2366.11,-140 2356.11,-136.5 2356.11,-143.5"/>
</g>
<!-- load_g5 -->
<g id="node28" class="node">
<title>load_g5</title>
<polygon fill="#d5e8d4" stroke="black" points="2534,-144.75 2480,-144.75 2480,-31.75 2534,-31.75 2534,-144.75"/>
<text xml:space="preserve" text-anchor="middle" x="2507" y="-131.25" font-family="SimHei" font-size="10.00">造</text>
<text xml:space="preserve" text-anchor="middle" x="2507" y="-120.75" font-family="SimHei" font-size="10.00">粒</text>
<text xml:space="preserve" text-anchor="middle" x="2507" y="-110.25" font-family="SimHei" font-size="10.00">车</text>
<text xml:space="preserve" text-anchor="middle" x="2507" y="-99.75" font-family="SimHei" font-size="10.00">间</text>
<text xml:space="preserve" text-anchor="middle" x="2507" y="-89.25" font-family="SimHei" font-size="10.00">变</text>
<text xml:space="preserve" text-anchor="middle" x="2507" y="-78.75" font-family="SimHei" font-size="10.00">电</text>
<text xml:space="preserve" text-anchor="middle" x="2507" y="-68.25" font-family="SimHei" font-size="10.00">所</text>
<text xml:space="preserve" text-anchor="middle" x="2507" y="-57.75" font-family="SimHei" font-size="10.00">8</text>
<text xml:space="preserve" text-anchor="middle" x="2507" y="-47.25" font-family="SimHei" font-size="10.00">7</text>
<text xml:space="preserve" text-anchor="middle" x="2507" y="-36.75" font-family="SimHei" font-size="10.00">4</text>
</g>
<!-- pelletizing_35kv&#45;&gt;load_g5 -->
<g id="edge27" class="edge">
<title>pelletizing_35kv&#45;&gt;load_g5</title>
<path fill="none" stroke="black" d="M2291.59,-289C2374.28,-289 2507,-289 2507,-289 2507,-289 2507,-156.75 2507,-156.75"/>
<polygon fill="black" stroke="black" points="2510.5,-156.75 2507,-146.75 2503.5,-156.75 2510.5,-156.75"/>
</g>
</g>
</svg>
